ExploreSansMonoVariable-NormalItalic.ufo
<glyph name="exclam" format="2">
  <advance width="600"/>
  <unicode hex="0021"/>
  <outline>
    <contour>
      <point x="309" y="715" type="line"/>
      <point x="409" y="715" type="line"/>
      <point x="288" y="206" type="line"/>
      <point x="210" y="206" type="line"/>
    </contour>
    <contour>
      <point x="230" y="118" type="curve" smooth="yes"/>
      <point x="266" y="118"/>
      <point x="279" y="96"/>
      <point x="279" y="74" type="curve" smooth="yes"/>
      <point x="279" y="28"/>
      <point x="243" y="-8"/>
      <point x="203" y="-8" type="curve" smooth="yes"/>
      <point x="170" y="-8"/>
      <point x="153" y="6"/>
      <point x="153" y="39" type="curve" smooth="yes"/>
      <point x="153" y="77"/>
      <point x="189" y="118"/>
    </contour>
  </outline>
</glyph>
<glyph name="quotedbl" format="2">
  <advance width="600"/>
  <unicode hex="0022"/>
  <outline>
    <contour>
      <point x="157" y="772" type="line"/>
      <point x="253" y="772" type="line"/>
      <point x="170" y="434" type="line"/>
      <point x="96" y="434" type="line"/>
    </contour>
    <contour>
      <point x="419" y="772" type="line"/>
      <point x="515" y="772" type="line"/>
      <point x="432" y="434" type="line"/>
      <point x="358" y="434" type="line"/>
    </contour>
  </outline>
</glyph>
<glyph name="numbersign" format="2">
  <advance width="600"/>
  <unicode hex="0023"/>
  <outline>
    <contour>
      <point x="284" y="724" type="line"/>
      <point x="367" y="724" type="line"/>
      <point x="266" y="520" type="line"/>
      <point x="401" y="520" type="line"/>
      <point x="502" y="724" type="line"/>
      <point x="585" y="724" type="line"/>
      <point x="484" y="520" type="line"/>
      <point x="603" y="520" type="line"/>
      <point x="588" y="452" type="line"/>
      <point x="495" y="452" type="line"/>
      <point x="407" y="274" type="line"/>
      <point x="550" y="274" type="line"/>
      <point x="536" y="206" type="line"/>
      <point x="419" y="206" type="line"/>
      <point x="317" y="0" type="line"/>
      <point x="234" y="0" type="line"/>
      <point x="336" y="206" type="line"/>
      <point x="201" y="206" type="line"/>
      <point x="99" y="0" type="line"/>
      <point x="16" y="0" type="line"/>
      <point x="118" y="206" type="line"/>
      <point x="-2" y="206" type="line"/>
      <point x="12" y="274" type="line"/>
      <point x="106" y="274" type="line"/>
      <point x="194" y="452" type="line"/>
      <point x="50" y="452" type="line"/>
      <point x="65" y="520" type="line"/>
      <point x="183" y="520" type="line"/>
    </contour>
    <contour>
      <point x="324" y="274" type="line"/>
      <point x="412" y="452" type="line"/>
      <point x="277" y="452" type="line"/>
      <point x="189" y="274" type="line"/>
    </contour>
  </outline>
</glyph>
<glyph name="dollar" format="2">
  <advance width="600"/>
  <unicode hex="0024"/>
  <outline>
    <contour>
      <point x="199" y="0" type="line"/>
      <point x="263" y="0" type="line"/>
      <point x="233" y="-139" type="line"/>
      <point x="169" y="-139" type="line"/>
    </contour>
    <contour>
      <point x="403" y="847" type="line"/>
      <point x="467" y="847" type="line"/>
      <point x="437" y="708" type="line"/>
      <point x="373" y="708" type="line"/>
    </contour>
    <component base="S"/>
  </outline>
</glyph>
<glyph name="percent" format="2">
  <advance width="600"/>
  <unicode hex="0025"/>
  <outline>
    <contour>
      <point x="556" y="561" type="line"/>
      <point x="585" y="518" type="line"/>
      <point x="45" y="146" type="line"/>
      <point x="15" y="190" type="line"/>
    </contour>
    <contour>
      <point x="422" y="322" type="curve" smooth="yes"/>
      <point x="484" y="322"/>
      <point x="531" y="279"/>
      <point x="531" y="205" type="curve" smooth="yes"/>
      <point x="531" y="104"/>
      <point x="483" y="-8"/>
      <point x="352" y="-8" type="curve" smooth="yes"/>
      <point x="282" y="-8"/>
      <point x="243" y="37"/>
      <point x="243" y="105" type="curve" smooth="yes"/>
      <point x="243" y="243"/>
      <point x="332" y="322"/>
    </contour>
    <contour>
      <point x="408" y="262" type="curve" smooth="yes"/>
      <point x="355" y="262"/>
      <point x="312" y="200"/>
      <point x="312" y="120" type="curve" smooth="yes"/>
      <point x="312" y="78"/>
      <point x="324" y="52"/>
      <point x="366" y="52" type="curve" smooth="yes"/>
      <point x="413" y="52"/>
      <point x="462" y="104"/>
      <point x="462" y="188" type="curve" smooth="yes"/>
      <point x="462" y="236"/>
      <point x="450" y="262"/>
    </contour>
    <contour>
      <point x="241" y="716" type="curve" smooth="yes"/>
      <point x="303" y="716"/>
      <point x="350" y="673"/>
      <point x="350" y="599" type="curve" smooth="yes"/>
      <point x="350" y="498"/>
      <point x="302" y="386"/>
      <point x="171" y="386" type="curve" smooth="yes"/>
      <point x="101" y="386"/>
      <point x="62" y="431"/>
      <point x="62" y="499" type="curve" smooth="yes"/>
      <point x="62" y="637"/>
      <point x="151" y="716"/>
    </contour>
    <contour>
      <point x="227" y="656" type="curve" smooth="yes"/>
      <point x="174" y="656"/>
      <point x="131" y="594"/>
      <point x="131" y="514" type="curve" smooth="yes"/>
      <point x="131" y="472"/>
      <point x="143" y="446"/>
      <point x="185" y="446" type="curve" smooth="yes"/>
      <point x="232" y="446"/>
      <point x="281" y="498"/>
      <point x="281" y="582" type="curve" smooth="yes"/>
      <point x="281" y="630"/>
      <point x="269" y="656"/>
    </contour>
  </outline>
</glyph>
<glyph name="ampersand" format="2">
  <advance width="600"/>
  <unicode hex="0026"/>
  <outline>
    <contour>
      <point x="376" y="716" type="curve" smooth="yes"/>
      <point x="422" y="716"/>
      <point x="456" y="709"/>
      <point x="506" y="681" type="curve"/>
      <point x="467" y="622" type="line"/>
      <point x="436" y="639"/>
      <point x="410" y="652"/>
      <point x="365" y="652" type="curve" smooth="yes"/>
      <point x="296" y="652"/>
      <point x="264" y="612"/>
      <point x="254" y="565" type="curve" smooth="yes"/>
      <point x="242" y="509"/>
      <point x="264" y="462"/>
      <point x="287" y="421" type="curve"/>
      <point x="511" y="0" type="line"/>
      <point x="418" y="0" type="line"/>
      <point x="218" y="379" type="line"/>
      <point x="182" y="448"/>
      <point x="160" y="501"/>
      <point x="174" y="566" type="curve" smooth="yes"/>
      <point x="189" y="638"/>
      <point x="251" y="716"/>
    </contour>
    <contour>
      <point x="262" y="447" type="line"/>
      <point x="249" y="385" type="line"/>
      <point x="229" y="385" type="line" smooth="yes"/>
      <point x="158" y="385"/>
      <point x="88" y="330"/>
      <point x="65" y="221" type="curve" smooth="yes"/>
      <point x="43" y="116"/>
      <point x="80" y="53"/>
      <point x="160" y="53" type="curve" smooth="yes"/>
      <point x="229" y="53"/>
      <point x="294" y="87"/>
      <point x="335" y="175" type="curve" smooth="yes"/>
      <point x="446" y="416" type="line"/>
      <point x="578" y="405" type="line"/>
      <point x="564" y="342" type="line"/>
      <point x="487" y="348" type="line"/>
      <point x="482" y="337"/>
      <point x="422" y="221"/>
      <point x="390" y="153" type="curve"/>
      <point x="346" y="59"/>
      <point x="257" y="-8"/>
      <point x="147" y="-8" type="curve" smooth="yes"/>
      <point x="19" y="-8"/>
      <point x="-35" y="90"/>
      <point x="-7" y="221" type="curve" smooth="yes"/>
      <point x="24" y="367"/>
      <point x="147" y="447"/>
      <point x="225" y="447" type="curve" smooth="yes"/>
    </contour>
  </outline>
</glyph>
<glyph name="parenleft" format="2">
  <advance width="600"/>
  <unicode hex="0028"/>
  <outline>
    <contour>
      <point x="478" y="800" type="curve"/>
      <point x="568" y="800" type="line"/>
      <point x="525" y="773"/>
      <point x="333" y="646"/>
      <point x="274" y="368" type="curve" smooth="yes"/>
      <point x="244" y="228"/>
      <point x="267" y="66"/>
      <point x="383" y="-64" type="curve"/>
      <point x="288" y="-64" type="line"/>
      <point x="197" y="25"/>
      <point x="160" y="197"/>
      <point x="196" y="368" type="curve" smooth="yes"/>
      <point x="237" y="563"/>
      <point x="343" y="707"/>
    </contour>
  </outline>
</glyph>
<glyph name="parenright" format="2">
  <advance width="600"/>
  <unicode hex="0029"/>
  <outline>
    <contour>
      <point x="256" y="800" type="curve"/>
      <point x="346" y="800" type="line"/>
      <point x="441" y="707"/>
      <point x="485" y="563"/>
      <point x="444" y="368" type="curve" smooth="yes"/>
      <point x="408" y="197"/>
      <point x="297" y="25"/>
      <point x="168" y="-64" type="curve"/>
      <point x="73" y="-64" type="line"/>
      <point x="245" y="66"/>
      <point x="336" y="228"/>
      <point x="366" y="368" type="curve" smooth="yes"/>
      <point x="425" y="646"/>
      <point x="287" y="773"/>
    </contour>
  </outline>
</glyph>
<glyph name="asterisk" format="2">
  <advance width="600"/>
  <unicode hex="002A"/>
  <outline>
    <contour>
      <point x="310" y="806" type="line"/>
      <point x="388" y="806" type="line"/>
      <point x="362" y="684" type="line"/>
      <point x="346" y="637" type="line"/>
      <point x="393" y="659" type="line"/>
      <point x="515" y="696" type="line"/>
      <point x="525" y="628" type="line"/>
      <point x="403" y="591" type="line"/>
      <point x="348" y="585" type="line"/>
      <point x="379" y="545" type="line"/>
      <point x="426" y="445" type="line"/>
      <point x="361" y="406" type="line"/>
      <point x="313" y="504" type="line"/>
      <point x="295" y="549" type="line"/>
      <point x="256" y="504" type="line"/>
      <point x="165" y="406" type="line"/>
      <point x="118" y="445" type="line"/>
      <point x="206" y="545" type="line"/>
      <point x="256" y="585" type="line"/>
      <point x="203" y="591" type="line"/>
      <point x="98" y="628" type="line"/>
      <point x="135" y="696" type="line"/>
      <point x="242" y="659" type="line"/>
      <point x="280" y="637" type="line"/>
      <point x="284" y="684" type="line"/>
    </contour>
  </outline>
</glyph>
<glyph name="plus" format="2">
  <advance width="600"/>
  <unicode hex="002B"/>
  <outline>
    <contour>
      <point x="303" y="479" type="line"/>
      <point x="383" y="479" type="line"/>
      <point x="346" y="303" type="line"/>
      <point x="521" y="303" type="line"/>
      <point x="505" y="231" type="line"/>
      <point x="330" y="231" type="line"/>
      <point x="293" y="54" type="line"/>
      <point x="213" y="54" type="line"/>
      <point x="250" y="231" type="line"/>
      <point x="79" y="231" type="line"/>
      <point x="95" y="303" type="line"/>
      <point x="266" y="303" type="line"/>
    </contour>
  </outline>
</glyph>
<glyph name="period" format="2">
  <advance width="600"/>
  <unicode hex="002E"/>
  <outline>
    <contour>
      <point x="300" y="132" type="curve" smooth="yes"/>
      <point x="342" y="132"/>
      <point x="362" y="99"/>
      <point x="354" y="62" type="curve" smooth="yes"/>
      <point x="346" y="26"/>
      <point x="312" y="-8"/>
      <point x="270" y="-8" type="curve" smooth="yes"/>
      <point x="226" y="-8"/>
      <point x="210" y="28"/>
      <point x="217" y="62" type="curve" smooth="yes"/>
      <point x="224" y="97"/>
      <point x="256" y="132"/>
    </contour>
  </outline>
</glyph>
<glyph name="zero" format="2">
  <advance width="600"/>
  <unicode hex="0030"/>
  <outline>
    <contour>
      <point x="362" y="651" type="curve" smooth="yes"/>
      <point x="271" y="651"/>
      <point x="190" y="599"/>
      <point x="139" y="358" type="curve" smooth="yes"/>
      <point x="96" y="157"/>
      <point x="121" y="57"/>
      <point x="235" y="57" type="curve" smooth="yes"/>
      <point x="352" y="57"/>
      <point x="420" y="158"/>
      <point x="463" y="360" type="curve" smooth="yes"/>
      <point x="517" y="615"/>
      <point x="439" y="651"/>
    </contour>
    <contour>
      <point x="376" y="716" type="curve" smooth="yes"/>
      <point x="549" y="716"/>
      <point x="589" y="577"/>
      <point x="543" y="360" type="curve" smooth="yes"/>
      <point x="492" y="121"/>
      <point x="385" y="-7"/>
      <point x="221" y="-7" type="curve" smooth="yes"/>
      <point x="60" y="-7"/>
      <point x="9" y="121"/>
      <point x="59" y="357" type="curve" smooth="yes"/>
      <point x="106" y="576"/>
      <point x="204" y="716"/>
    </contour>
    <contour>
      <point x="350" y="360" type="curve" smooth="yes"/>
      <point x="356" y="388"/>
      <point x="339" y="410"/>
      <point x="311" y="410" type="curve" smooth="yes"/>
      <point x="283" y="410"/>
      <point x="256" y="388"/>
      <point x="250" y="360" type="curve" smooth="yes"/>
      <point x="244" y="332"/>
      <point x="262" y="310"/>
      <point x="290" y="310" type="curve" smooth="yes"/>
      <point x="318" y="310"/>
      <point x="344" y="332"/>
    </contour>
  </outline>
</glyph>
<glyph name="two" format="2">
  <advance width="600"/>
  <unicode hex="0032"/>
  <outline>
    <contour>
      <point x="141" y="644" type="line"/>
      <point x="212" y="699"/>
      <point x="287" y="716"/>
      <point x="367" y="716" type="curve" smooth="yes"/>
      <point x="472" y="716"/>
      <point x="553" y="663"/>
      <point x="553" y="554" type="curve" smooth="yes"/>
      <point x="553" y="454"/>
      <point x="482" y="369"/>
      <point x="379" y="280" type="curve" smooth="yes"/>
      <point x="327" y="235"/>
      <point x="142" y="73"/>
      <point x="142" y="72" type="curve"/>
      <point x="478" y="72" type="line"/>
      <point x="463" y="0" type="line"/>
      <point x="20" y="0" type="line"/>
      <point x="35" y="71" type="line"/>
      <point x="328" y="325" type="line" smooth="yes"/>
      <point x="415" y="400"/>
      <point x="473" y="450"/>
      <point x="473" y="548" type="curve" smooth="yes"/>
      <point x="473" y="597"/>
      <point x="440" y="652"/>
      <point x="352" y="652" type="curve" smooth="yes"/>
      <point x="286" y="652"/>
      <point x="225" y="633"/>
      <point x="166" y="584" type="curve"/>
    </contour>
  </outline>
</glyph>
<glyph name="three" format="2">
  <advance width="600"/>
  <unicode hex="0033"/>
  <outline>
    <contour>
      <point x="174" y="708" type="line"/>
      <point x="584" y="708" type="line"/>
      <point x="571" y="645" type="line"/>
      <point x="328" y="430" type="line"/>
      <point x="430" y="430"/>
      <point x="516" y="361"/>
      <point x="516" y="245" type="curve" smooth="yes"/>
      <point x="516" y="139"/>
      <point x="463" y="-8"/>
      <point x="237" y="-8" type="curve" smooth="yes"/>
      <point x="150" y="-8"/>
      <point x="74" y="22"/>
      <point x="10" y="80" type="curve"/>
      <point x="51" y="137" type="line"/>
      <point x="104" y="87"/>
      <point x="170" y="56"/>
      <point x="245" y="56" type="curve" smooth="yes"/>
      <point x="366" y="56"/>
      <point x="437" y="130"/>
      <point x="437" y="240" type="curve" smooth="yes"/>
      <point x="437" y="318"/>
      <point x="396" y="370"/>
      <point x="288" y="370" type="curve" smooth="yes"/>
      <point x="260" y="370" type="line"/>
      <point x="240" y="429" type="line"/>
      <point x="466" y="644" type="line"/>
      <point x="160" y="644" type="line"/>
    </contour>
  </outline>
</glyph>
<glyph name="four" format="2">
  <advance width="600"/>
  <unicode hex="0034"/>
  <outline>
    <contour>
      <point x="370" y="708" type="line"/>
      <point x="453" y="708" type="line"/>
      <point x="114" y="234" type="line"/>
      <point x="346" y="234" type="line"/>
      <point x="386" y="418" type="line"/>
      <point x="466" y="418" type="line"/>
      <point x="426" y="234" type="line"/>
      <point x="519" y="234" type="line"/>
      <point x="505" y="164" type="line"/>
      <point x="412" y="164" type="line"/>
      <point x="377" y="0" type="line"/>
      <point x="297" y="0" type="line"/>
      <point x="332" y="164" type="line"/>
      <point x="20" y="164" type="line"/>
      <point x="34" y="234" type="line"/>
    </contour>
  </outline>
</glyph>
<glyph name="five" format="2">
  <advance width="600"/>
  <unicode hex="0035"/>
  <outline>
    <contour>
      <point x="179" y="708" type="line"/>
      <point x="572" y="708" type="line"/>
      <point x="557" y="637" type="line"/>
      <point x="239" y="637" type="line"/>
      <point x="181" y="389" type="line"/>
      <point x="214" y="428"/>
      <point x="267" y="454"/>
      <point x="329" y="454" type="curve" smooth="yes"/>
      <point x="427" y="454"/>
      <point x="512" y="392"/>
      <point x="512" y="253" type="curve" smooth="yes"/>
      <point x="512" y="75"/>
      <point x="387" y="-8"/>
      <point x="229" y="-8" type="curve" smooth="yes"/>
      <point x="132" y="-8"/>
      <point x="63" y="22"/>
      <point x="7" y="74" type="curve"/>
      <point x="45" y="129" type="line"/>
      <point x="97" y="83"/>
      <point x="160" y="56"/>
      <point x="243" y="56" type="curve" smooth="yes"/>
      <point x="351" y="56"/>
      <point x="432" y="119"/>
      <point x="432" y="249" type="curve" smooth="yes"/>
      <point x="432" y="341"/>
      <point x="384" y="388"/>
      <point x="295" y="388" type="curve" smooth="yes"/>
      <point x="230" y="388"/>
      <point x="190" y="353"/>
      <point x="165" y="322" type="curve"/>
      <point x="90" y="322" type="line"/>
    </contour>
  </outline>
</glyph>
<glyph name="six" format="2">
  <advance width="600"/>
  <unicode hex="0036"/>
  <outline>
    <contour>
      <point x="382" y="708" type="line"/>
      <point x="471" y="708" type="line"/>
      <point x="452" y="686"/>
      <point x="206" y="422"/>
      <point x="180" y="372" type="curve"/>
      <point x="217" y="413"/>
      <point x="289" y="439"/>
      <point x="353" y="439" type="curve" smooth="yes"/>
      <point x="448" y="439"/>
      <point x="535" y="377"/>
      <point x="535" y="259" type="curve" smooth="yes"/>
      <point x="535" y="64"/>
      <point x="380" y="-8"/>
      <point x="258" y="-8" type="curve" smooth="yes"/>
      <point x="123" y="-8"/>
      <point x="53" y="63"/>
      <point x="53" y="168" type="curve" smooth="yes"/>
      <point x="53" y="260"/>
      <point x="86" y="374"/>
      <point x="182" y="482" type="curve" smooth="yes"/>
    </contour>
    <contour>
      <point x="337" y="375" type="curve" smooth="yes"/>
      <point x="266" y="375"/>
      <point x="203" y="354"/>
      <point x="167" y="303" type="curve" smooth="yes"/>
      <point x="146" y="272"/>
      <point x="133" y="231"/>
      <point x="133" y="173" type="curve" smooth="yes"/>
      <point x="133" y="81"/>
      <point x="187" y="56"/>
      <point x="263" y="56" type="curve" smooth="yes"/>
      <point x="357" y="56"/>
      <point x="455" y="110"/>
      <point x="455" y="258" type="curve" smooth="yes"/>
      <point x="455" y="338"/>
      <point x="399" y="375"/>
    </contour>
  </outline>
</glyph>
<glyph name="seven" format="2">
  <advance width="600"/>
  <unicode hex="0037"/>
  <outline>
    <contour>
      <point x="147" y="708" type="line"/>
      <point x="597" y="708" type="line"/>
      <point x="584" y="648" type="line"/>
      <point x="160" y="0" type="line"/>
      <point x="75" y="0" type="line"/>
      <point x="504" y="644" type="line"/>
      <point x="134" y="644" type="line"/>
    </contour>
  </outline>
</glyph>
<glyph name="eight" format="2">
  <advance width="600"/>
  <unicode hex="0038"/>
  <outline>
    <contour>
      <point x="383" y="716" type="curve" smooth="yes"/>
      <point x="514" y="716"/>
      <point x="595" y="647"/>
      <point x="570" y="531" type="curve" smooth="yes"/>
      <point x="554" y="454"/>
      <point x="491" y="381"/>
      <point x="423" y="370" type="curve"/>
      <point x="495" y="343"/>
      <point x="531" y="279"/>
      <point x="513" y="192" type="curve" smooth="yes"/>
      <point x="486" y="66"/>
      <point x="378" y="-7"/>
      <point x="229" y="-7" type="curve" smooth="yes"/>
      <point x="79" y="-7"/>
      <point x="2" y="66"/>
      <point x="29" y="192" type="curve" smooth="yes"/>
      <point x="48" y="281"/>
      <point x="103" y="332"/>
      <point x="194" y="370" type="curve"/>
      <point x="124" y="382"/>
      <point x="101" y="444"/>
      <point x="119" y="531" type="curve" smooth="yes"/>
      <point x="144" y="649"/>
      <point x="252" y="716"/>
    </contour>
    <contour>
      <point x="369" y="650" type="curve" smooth="yes"/>
      <point x="279" y="650"/>
      <point x="215" y="607"/>
      <point x="197" y="524" type="curve" smooth="yes"/>
      <point x="181" y="450"/>
      <point x="227" y="402"/>
      <point x="316" y="402" type="curve" smooth="yes"/>
      <point x="406" y="402"/>
      <point x="472" y="450"/>
      <point x="488" y="524" type="curve" smooth="yes"/>
      <point x="506" y="607"/>
      <point x="459" y="650"/>
    </contour>
    <contour>
      <point x="302" y="336" type="curve" smooth="yes"/>
      <point x="206" y="336"/>
      <point x="129" y="282"/>
      <point x="111" y="197" type="curve" smooth="yes"/>
      <point x="91" y="104"/>
      <point x="138" y="57"/>
      <point x="243" y="57" type="curve" smooth="yes"/>
      <point x="348" y="57"/>
      <point x="415" y="104"/>
      <point x="435" y="197" type="curve" smooth="yes"/>
      <point x="453" y="284"/>
      <point x="399" y="336"/>
    </contour>
  </outline>
</glyph>
<glyph name="nine" format="2">
  <advance width="600"/>
  <unicode hex="0039"/>
  <outline>
    <contour>
      <point x="340" y="716" type="curve" smooth="yes"/>
      <point x="475" y="716"/>
      <point x="545" y="644"/>
      <point x="545" y="539" type="curve" smooth="yes"/>
      <point x="545" y="447"/>
      <point x="512" y="334"/>
      <point x="416" y="226" type="curve" smooth="yes"/>
      <point x="216" y="0" type="line"/>
      <point x="127" y="0" type="line"/>
      <point x="146" y="22"/>
      <point x="392" y="286"/>
      <point x="418" y="336" type="curve"/>
      <point x="381" y="295"/>
      <point x="309" y="269"/>
      <point x="245" y="269" type="curve" smooth="yes"/>
      <point x="150" y="269"/>
      <point x="63" y="331"/>
      <point x="63" y="449" type="curve" smooth="yes"/>
      <point x="63" y="644"/>
      <point x="218" y="716"/>
    </contour>
    <contour>
      <point x="335" y="652" type="curve" smooth="yes"/>
      <point x="241" y="652"/>
      <point x="143" y="598"/>
      <point x="143" y="450" type="curve" smooth="yes"/>
      <point x="143" y="370"/>
      <point x="199" y="333"/>
      <point x="261" y="333" type="curve" smooth="yes"/>
      <point x="332" y="333"/>
      <point x="395" y="354"/>
      <point x="431" y="405" type="curve" smooth="yes"/>
      <point x="452" y="436"/>
      <point x="465" y="477"/>
      <point x="465" y="535" type="curve" smooth="yes"/>
      <point x="465" y="627"/>
      <point x="411" y="652"/>
    </contour>
  </outline>
</glyph>
<glyph name="colon" format="2">
  <advance width="600"/>
  <unicode hex="003A"/>
  <outline>
    <contour>
      <point x="323" y="528" type="curve" smooth="yes"/>
      <point x="360" y="528"/>
      <point x="382" y="501"/>
      <point x="374" y="465" type="curve" smooth="yes"/>
      <point x="366" y="429"/>
      <point x="333" y="402"/>
      <point x="296" y="402" type="curve" smooth="yes"/>
      <point x="260" y="402"/>
      <point x="240" y="429"/>
      <point x="248" y="465" type="curve" smooth="yes"/>
      <point x="256" y="501"/>
      <point x="287" y="528"/>
    </contour>
    <contour>
      <point x="236" y="118" type="curve" smooth="yes"/>
      <point x="272" y="118"/>
      <point x="294" y="90"/>
      <point x="286" y="54" type="curve" smooth="yes"/>
      <point x="279" y="19"/>
      <point x="246" y="-8"/>
      <point x="209" y="-8" type="curve" smooth="yes"/>
      <point x="172" y="-8"/>
      <point x="152" y="17"/>
      <point x="160" y="54" type="curve" smooth="yes"/>
      <point x="168" y="91"/>
      <point x="200" y="118"/>
    </contour>
  </outline>
</glyph>
<glyph name="less" format="2">
  <advance width="600"/>
  <unicode hex="003C"/>
  <outline>
    <contour>
      <point x="76" y="330" type="line"/>
      <point x="544" y="494" type="line"/>
      <point x="554" y="423" type="line"/>
      <point x="135" y="279" type="line"/>
      <point x="492" y="134" type="line"/>
      <point x="452" y="63" type="line"/>
      <point x="54" y="227" type="line"/>
    </contour>
  </outline>
</glyph>
<glyph name="equal" format="2">
  <advance width="600"/>
  <unicode hex="003D"/>
  <outline>
    <contour>
      <point x="108" y="418" type="line"/>
      <point x="560" y="418" type="line"/>
      <point x="545" y="347" type="line"/>
      <point x="93" y="347" type="line"/>
    </contour>
    <contour>
      <point x="67" y="226" type="line"/>
      <point x="519" y="226" type="line"/>
      <point x="504" y="156" type="line"/>
      <point x="52" y="156" type="line"/>
    </contour>
  </outline>
</glyph>
<glyph name="question" format="2">
  <advance width="600"/>
  <unicode hex="003F"/>
  <outline>
    <contour>
      <point x="314" y="732" type="curve" smooth="yes"/>
      <point x="348" y="732"/>
      <point x="526" y="724"/>
      <point x="490" y="556" type="curve" smooth="yes"/>
      <point x="479" y="504"/>
      <point x="445" y="455"/>
      <point x="405" y="426" type="curve" smooth="yes"/>
      <point x="261" y="322"/>
      <point x="247" y="312"/>
      <point x="230" y="232" type="curve" smooth="yes"/>
      <point x="226" y="214"/>
      <point x="225" y="198"/>
      <point x="225" y="185" type="curve"/>
      <point x="156" y="177" type="line"/>
      <point x="156" y="199"/>
      <point x="158" y="219"/>
      <point x="162" y="238" type="curve" smooth="yes"/>
      <point x="182" y="333"/>
      <point x="246" y="382"/>
      <point x="343" y="450" type="curve" smooth="yes"/>
      <point x="378" y="475"/>
      <point x="401" y="510"/>
      <point x="411" y="555" type="curve" smooth="yes"/>
      <point x="427" y="628"/>
      <point x="389" y="665"/>
      <point x="299" y="665" type="curve" smooth="yes"/>
      <point x="246" y="665"/>
      <point x="189" y="645"/>
      <point x="126" y="604" type="curve"/>
      <point x="108" y="665" type="line"/>
      <point x="180" y="710"/>
      <point x="249" y="732"/>
    </contour>
    <contour>
      <point x="186" y="119" type="curve" smooth="yes"/>
      <point x="226" y="119"/>
      <point x="244" y="87"/>
      <point x="237" y="55" type="curve" smooth="yes"/>
      <point x="230" y="22"/>
      <point x="198" y="-7"/>
      <point x="159" y="-7" type="curve" smooth="yes"/>
      <point x="118" y="-7"/>
      <point x="104" y="23"/>
      <point x="111" y="55" type="curve" smooth="yes"/>
      <point x="118" y="86"/>
      <point x="144" y="119"/>
    </contour>
  </outline>
</glyph>
<glyph name="at" format="2">
  <advance width="600"/>
  <unicode hex="0040"/>
  <outline>
    <contour>
      <point x="471" y="800" type="curve" smooth="yes"/>
      <point x="558" y="800"/>
      <point x="663" y="739"/>
      <point x="636" y="611" type="curve"/>
      <point x="510" y="267" type="line"/>
      <point x="583" y="182" type="line"/>
      <point x="522" y="126" type="line"/>
      <point x="450" y="216" type="line"/>
      <point x="405" y="159"/>
      <point x="355" y="128"/>
      <point x="290" y="128" type="curve" smooth="yes"/>
      <point x="213" y="128"/>
      <point x="154" y="193"/>
      <point x="180" y="315" type="curve" smooth="yes"/>
      <point x="214" y="476"/>
      <point x="324" y="580"/>
      <point x="433" y="580" type="curve" smooth="yes"/>
      <point x="496" y="580"/>
      <point x="523" y="532"/>
      <point x="524" y="510" type="curve"/>
      <point x="563" y="611" type="line"/>
      <point x="579" y="687"/>
      <point x="532" y="731"/>
      <point x="447" y="731" type="curve" smooth="yes"/>
      <point x="284" y="731"/>
      <point x="167" y="591"/>
      <point x="114" y="344" type="curve" smooth="yes"/>
      <point x="64" y="107"/>
      <point x="78" y="-27"/>
      <point x="261" y="-27" type="curve" smooth="yes"/>
      <point x="349" y="-27"/>
      <point x="415" y="-7"/>
      <point x="441" y="3" type="curve"/>
      <point x="428" y="-64" type="line"/>
      <point x="374" y="-84"/>
      <point x="306" y="-96"/>
      <point x="233" y="-96" type="curve" smooth="yes"/>
      <point x="38" y="-96"/>
      <point x="-30" y="25"/>
      <point x="38" y="344" type="curve" smooth="yes"/>
      <point x="102" y="643"/>
      <point x="284" y="800"/>
    </contour>
    <contour>
      <point x="418" y="513" type="curve" smooth="yes"/>
      <point x="334" y="513"/>
      <point x="279" y="412"/>
      <point x="259" y="320" type="curve" smooth="yes"/>
      <point x="243" y="246"/>
      <point x="264" y="198"/>
      <point x="319" y="198" type="curve" smooth="yes"/>
      <point x="378" y="198"/>
      <point x="428" y="222"/>
      <point x="473" y="358" type="curve" smooth="yes"/>
      <point x="504" y="450" type="line"/>
      <point x="492" y="482"/>
      <point x="472" y="513"/>
    </contour>
  </outline>
</glyph>
<glyph name="B" format="2">
  <advance width="600"/>
  <unicode hex="0042"/>
  <outline>
    <contour>
      <point x="167" y="708" type="line"/>
      <point x="382" y="708" type="line" smooth="yes"/>
      <point x="514" y="708"/>
      <point x="581" y="641"/>
      <point x="558" y="534" type="curve" smooth="yes"/>
      <point x="542" y="461"/>
      <point x="497" y="409"/>
      <point x="421" y="378" type="curve"/>
      <point x="500" y="357"/>
      <point x="538" y="288"/>
      <point x="519" y="197" type="curve" smooth="yes"/>
      <point x="493" y="74"/>
      <point x="393" y="0"/>
      <point x="253" y="0" type="curve" smooth="yes"/>
      <point x="17" y="0" type="line"/>
    </contour>
    <contour>
      <point x="230" y="644" type="line"/>
      <point x="180" y="412" type="line"/>
      <point x="323" y="412" type="line" smooth="yes"/>
      <point x="413" y="412"/>
      <point x="462" y="449"/>
      <point x="479" y="530" type="curve" smooth="yes"/>
      <point x="495" y="606"/>
      <point x="458" y="644"/>
      <point x="367" y="644" type="curve" smooth="yes"/>
    </contour>
    <contour>
      <point x="166" y="344" type="line"/>
      <point x="106" y="64" type="line"/>
      <point x="266" y="64" type="line" smooth="yes"/>
      <point x="357" y="64"/>
      <point x="422" y="115"/>
      <point x="440" y="202" type="curve" smooth="yes"/>
      <point x="460" y="294"/>
      <point x="412" y="344"/>
      <point x="303" y="344" type="curve" smooth="yes"/>
    </contour>
  </outline>
</glyph>
<glyph name="C" format="2">
  <advance width="600"/>
  <unicode hex="0043"/>
  <outline>
    <contour>
      <point x="425" y="716" type="curve" smooth="yes"/>
      <point x="502" y="716"/>
      <point x="551" y="694"/>
      <point x="600" y="647" type="curve"/>
      <point x="556" y="596" type="line"/>
      <point x="505" y="640"/>
      <point x="467" y="653"/>
      <point x="413" y="653" type="curve" smooth="yes"/>
      <point x="253" y="653"/>
      <point x="176" y="503"/>
      <point x="143" y="347" type="curve" smooth="yes"/>
      <point x="109" y="186"/>
      <point x="148" y="56"/>
      <point x="289" y="56" type="curve" smooth="yes"/>
      <point x="356" y="56"/>
      <point x="396" y="70"/>
      <point x="463" y="111" type="curve"/>
      <point x="482" y="58" type="line"/>
      <point x="431" y="28"/>
      <point x="388" y="-8"/>
      <point x="274" y="-8" type="curve" smooth="yes"/>
      <point x="76" y="-8"/>
      <point x="25" y="168"/>
      <point x="63" y="347" type="curve" smooth="yes"/>
      <point x="100" y="521"/>
      <point x="218" y="716"/>
    </contour>
  </outline>
</glyph>
<glyph name="E" format="2">
  <advance width="600"/>
  <unicode hex="0045"/>
  <anchor x="414" y="880" name="AccentCenter"/>
  <outline>
    <contour>
      <point x="167" y="708" type="line"/>
      <point x="602" y="708" type="line"/>
      <point x="589" y="644" type="line"/>
      <point x="234" y="644" type="line"/>
      <point x="182" y="402" type="line"/>
      <point x="457" y="402" type="line"/>
      <point x="442" y="332" type="line"/>
      <point x="167" y="332" type="line"/>
      <point x="110" y="64" type="line"/>
      <point x="465" y="64" type="line"/>
      <point x="452" y="0" type="line"/>
      <point x="17" y="0" type="line"/>
    </contour>
  </outline>
</glyph>
<glyph name="F" format="2">
  <advance width="600"/>
  <unicode hex="0046"/>
  <outline>
    <contour>
      <point x="167" y="708" type="line"/>
      <point x="620" y="708" type="line"/>
      <point x="607" y="644" type="line"/>
      <point x="236" y="644" type="line"/>
      <point x="185" y="406" type="line"/>
      <point x="478" y="406" type="line"/>
      <point x="463" y="336" type="line"/>
      <point x="170" y="336" type="line"/>
      <point x="99" y="0" type="line"/>
      <point x="17" y="0" type="line"/>
    </contour>
  </outline>
</glyph>
<glyph name="G" format="2">
  <advance width="600"/>
  <unicode hex="0047"/>
  <outline>
    <contour>
      <point x="421" y="716" type="curve" smooth="yes"/>
      <point x="485" y="716"/>
      <point x="548" y="700"/>
      <point x="600" y="654" type="curve"/>
      <point x="558" y="602" type="line"/>
      <point x="511" y="638"/>
      <point x="469" y="653"/>
      <point x="410" y="653" type="curve" smooth="yes"/>
      <point x="281" y="653"/>
      <point x="185" y="556"/>
      <point x="142" y="352" type="curve" smooth="yes"/>
      <point x="99" y="148"/>
      <point x="151" y="53"/>
      <point x="291" y="53" type="curve" smooth="yes"/>
      <point x="334" y="53"/>
      <point x="364" y="60"/>
      <point x="395" y="68" type="curve"/>
      <point x="450" y="326" type="line"/>
      <point x="290" y="326" type="line"/>
      <point x="304" y="392" type="line"/>
      <point x="544" y="392" type="line"/>
      <point x="466" y="26" type="line"/>
      <point x="379" y="1"/>
      <point x="345" y="-8"/>
      <point x="265" y="-8" type="curve" smooth="yes"/>
      <point x="114" y="-8"/>
      <point x="5" y="74"/>
      <point x="64" y="352" type="curve" smooth="yes"/>
      <point x="112" y="576"/>
      <point x="233" y="716"/>
    </contour>
  </outline>
</glyph>
<glyph name="H" format="2">
  <advance width="600"/>
  <unicode hex="0048"/>
  <outline>
    <contour>
      <point x="167" y="708" type="line"/>
      <point x="247" y="708" type="line"/>
      <point x="185" y="414" type="line"/>
      <point x="441" y="414" type="line"/>
      <point x="503" y="708" type="line"/>
      <point x="583" y="708" type="line"/>
      <point x="433" y="0" type="line"/>
      <point x="353" y="0" type="line"/>
      <point x="426" y="344" type="line"/>
      <point x="170" y="344" type="line"/>
      <point x="97" y="0" type="line"/>
      <point x="17" y="0" type="line"/>
    </contour>
  </outline>
</glyph>
<glyph name="I" format="2">
  <advance width="600"/>
  <unicode hex="0049"/>
  <anchor x="410" y="876" name="AccentCenter"/>
  <outline>
    <contour>
      <point x="167" y="708" type="line"/>
      <point x="583" y="708" type="line"/>
      <point x="570" y="644" type="line"/>
      <point x="402" y="644" type="line"/>
      <point x="278" y="64" type="line"/>
      <point x="446" y="64" type="line"/>
      <point x="433" y="0" type="line"/>
      <point x="17" y="0" type="line"/>
      <point x="30" y="64" type="line"/>
      <point x="198" y="64" type="line"/>
      <point x="322" y="644" type="line"/>
      <point x="154" y="644" type="line"/>
    </contour>
  </outline>
</glyph>
<glyph name="J" format="2">
  <advance width="600"/>
  <unicode hex="004A"/>
  <outline>
    <contour>
      <point x="278" y="708" type="line"/>
      <point x="584" y="708" type="line"/>
      <point x="478" y="209" type="line" smooth="yes"/>
      <point x="453" y="90"/>
      <point x="355" y="-8"/>
      <point x="197" y="-8" type="curve" smooth="yes"/>
      <point x="90" y="-8"/>
      <point x="43" y="41"/>
      <point x="10" y="93" type="curve"/>
      <point x="66" y="146" type="line"/>
      <point x="99" y="101"/>
      <point x="129" y="56"/>
      <point x="213" y="56" type="curve" smooth="yes"/>
      <point x="308" y="56"/>
      <point x="375" y="103"/>
      <point x="397" y="206" type="curve" smooth="yes"/>
      <point x="490" y="644" type="line"/>
      <point x="264" y="644" type="line"/>
    </contour>
  </outline>
</glyph>
<glyph name="K" format="2">
  <advance width="600"/>
  <unicode hex="004B"/>
  <outline>
    <contour>
      <point x="167" y="708" type="line"/>
      <point x="247" y="708" type="line"/>
      <point x="181" y="397" type="line"/>
      <point x="229" y="397" type="line"/>
      <point x="520" y="708" type="line"/>
      <point x="626" y="708" type="line"/>
      <point x="282" y="359" type="line"/>
      <point x="477" y="0" type="line"/>
      <point x="371" y="0" type="line"/>
      <point x="213" y="322" type="line"/>
      <point x="165" y="322" type="line"/>
      <point x="97" y="0" type="line"/>
      <point x="17" y="0" type="line"/>
    </contour>
  </outline>
</glyph>
<glyph name="M" format="2">
  <advance width="600"/>
  <unicode hex="004D"/>
  <outline>
    <contour>
      <point x="157" y="708" type="line"/>
      <point x="249" y="708" type="line"/>
      <point x="288" y="280" type="line"/>
      <point x="518" y="708" type="line"/>
      <point x="593" y="708" type="line"/>
      <point x="443" y="0" type="line"/>
      <point x="363" y="0" type="line"/>
      <point x="417" y="256" type="line"/>
      <point x="485" y="521" type="line"/>
      <point x="317" y="179" type="line"/>
      <point x="219" y="179" type="line"/>
      <point x="186" y="523" type="line"/>
      <point x="141" y="256" type="line"/>
      <point x="87" y="0" type="line"/>
      <point x="7" y="0" type="line"/>
    </contour>
  </outline>
</glyph>
<glyph name="N" format="2">
  <advance width="600"/>
  <unicode hex="004E"/>
  <outline>
    <contour>
      <point x="163" y="708" type="line"/>
      <point x="248" y="708" type="line"/>
      <point x="391" y="163" type="line"/>
      <point x="507" y="708" type="line"/>
      <point x="587" y="708" type="line"/>
      <point x="437" y="0" type="line"/>
      <point x="351" y="0" type="line"/>
      <point x="209" y="549" type="line"/>
      <point x="93" y="0" type="line"/>
      <point x="13" y="0" type="line"/>
    </contour>
  </outline>
</glyph>
<glyph name="O" format="2">
  <advance width="600"/>
  <unicode hex="004F"/>
  <anchor x="411" y="876" name="AccentCenter"/>
  <outline>
    <contour>
      <point x="378" y="716" type="curve" smooth="yes"/>
      <point x="534" y="716"/>
      <point x="564" y="582"/>
      <point x="564" y="488" type="curve" smooth="yes"/>
      <point x="564" y="201"/>
      <point x="436" y="-8"/>
      <point x="228" y="-8" type="curve" smooth="yes"/>
      <point x="58" y="-8"/>
      <point x="36" y="121"/>
      <point x="36" y="223" type="curve" smooth="yes"/>
      <point x="36" y="514"/>
      <point x="182" y="716"/>
    </contour>
    <contour>
      <point x="364" y="652" type="curve" smooth="yes"/>
      <point x="229" y="652"/>
      <point x="116" y="476"/>
      <point x="116" y="223" type="curve" smooth="yes"/>
      <point x="116" y="141"/>
      <point x="130" y="56"/>
      <point x="242" y="56" type="curve" smooth="yes"/>
      <point x="380" y="56"/>
      <point x="484" y="225"/>
      <point x="484" y="488" type="curve" smooth="yes"/>
      <point x="484" y="560"/>
      <point x="471" y="652"/>
    </contour>
  </outline>
</glyph>
<glyph name="P" format="2">
  <advance width="600"/>
  <unicode hex="0050"/>
  <outline>
    <contour>
      <point x="230" y="644" type="line"/>
      <point x="162" y="324" type="line"/>
      <point x="311" y="324" type="line" smooth="yes"/>
      <point x="423" y="324"/>
      <point x="485" y="376"/>
      <point x="509" y="491" type="curve" smooth="yes"/>
      <point x="531" y="593"/>
      <point x="494" y="644"/>
      <point x="397" y="644" type="curve" smooth="yes"/>
    </contour>
    <contour>
      <point x="167" y="708" type="line"/>
      <point x="407" y="708" type="line" smooth="yes"/>
      <point x="554" y="708"/>
      <point x="619" y="631"/>
      <point x="589" y="491" type="curve" smooth="yes"/>
      <point x="557" y="339"/>
      <point x="457" y="260"/>
      <point x="297" y="260" type="curve" smooth="yes"/>
      <point x="148" y="260" type="line"/>
      <point x="93" y="0" type="line"/>
      <point x="17" y="0" type="line"/>
    </contour>
  </outline>
</glyph>
<glyph name="Q" format="2">
  <advance width="600"/>
  <unicode hex="0051"/>
  <outline>
    <contour>
      <point x="383" y="652" type="curve" smooth="yes"/>
      <point x="270" y="652"/>
      <point x="188" y="552"/>
      <point x="146" y="353" type="curve" smooth="yes"/>
      <point x="104" y="154"/>
      <point x="143" y="54"/>
      <point x="256" y="54" type="curve" smooth="yes"/>
      <point x="366" y="54"/>
      <point x="443" y="151"/>
      <point x="486" y="353" type="curve" smooth="yes"/>
      <point x="529" y="555"/>
      <point x="493" y="652"/>
    </contour>
    <contour>
      <point x="397" y="716" type="curve" smooth="yes"/>
      <point x="551" y="716"/>
      <point x="616" y="585"/>
      <point x="568" y="358" type="curve" smooth="yes"/>
      <point x="527" y="166"/>
      <point x="444" y="20"/>
      <point x="283" y="-5" type="curve"/>
      <point x="270" y="-89"/>
      <point x="296" y="-120"/>
      <point x="374" y="-120" type="curve" smooth="yes"/>
      <point x="481" y="-120" type="line"/>
      <point x="475" y="-167" type="line"/>
      <point x="447" y="-175"/>
      <point x="420" y="-184"/>
      <point x="354" y="-184" type="curve" smooth="yes"/>
      <point x="234" y="-184"/>
      <point x="191" y="-128"/>
      <point x="205" y="-5" type="curve"/>
      <point x="58" y="10"/>
      <point x="27" y="168"/>
      <point x="67" y="355" type="curve" smooth="yes"/>
      <point x="116" y="584"/>
      <point x="239" y="716"/>
    </contour>
  </outline>
</glyph>
<glyph name="R" format="2">
  <advance width="600"/>
  <unicode hex="0052"/>
  <outline>
    <contour>
      <point x="167" y="708" type="line"/>
      <point x="387" y="708" type="line" smooth="yes"/>
      <point x="518" y="708"/>
      <point x="596" y="634"/>
      <point x="568" y="502" type="curve" smooth="yes"/>
      <point x="545" y="395"/>
      <point x="455" y="320"/>
      <point x="356" y="297" type="curve"/>
      <point x="456" y="0" type="line"/>
      <point x="369" y="0" type="line"/>
      <point x="276" y="292" type="line"/>
      <point x="159" y="292" type="line"/>
      <point x="97" y="0" type="line"/>
      <point x="17" y="0" type="line"/>
    </contour>
    <contour>
      <point x="172" y="356" type="line"/>
      <point x="293" y="356" type="line" smooth="yes"/>
      <point x="405" y="356"/>
      <point x="470" y="411"/>
      <point x="489" y="503" type="curve" smooth="yes"/>
      <point x="508" y="598"/>
      <point x="463" y="644"/>
      <point x="374" y="644" type="curve" smooth="yes"/>
      <point x="234" y="644" type="line"/>
    </contour>
  </outline>
</glyph>
<glyph name="S" format="2">
  <advance width="600"/>
  <unicode hex="0053"/>
  <outline>
    <contour>
      <point x="401" y="716" type="curve" smooth="yes"/>
      <point x="479" y="716"/>
      <point x="537" y="692"/>
      <point x="592" y="649" type="curve"/>
      <point x="547" y="593" type="line"/>
      <point x="503" y="628"/>
      <point x="452" y="652"/>
      <point x="386" y="652" type="curve" smooth="yes"/>
      <point x="296" y="652"/>
      <point x="219" y="614"/>
      <point x="201" y="529" type="curve" smooth="yes"/>
      <point x="185" y="456"/>
      <point x="217" y="420"/>
      <point x="316" y="394" type="curve" smooth="yes"/>
      <point x="393" y="374" type="line" smooth="yes"/>
      <point x="491" y="349"/>
      <point x="539" y="285"/>
      <point x="518" y="184" type="curve" smooth="yes"/>
      <point x="495" y="74"/>
      <point x="397" y="-8"/>
      <point x="226" y="-8" type="curve" smooth="yes"/>
      <point x="144" y="-8"/>
      <point x="88" y="1"/>
      <point x="-7" y="54" type="curve"/>
      <point x="35" y="116" type="line"/>
      <point x="113" y="68"/>
      <point x="176" y="56"/>
      <point x="245" y="56" type="curve" smooth="yes"/>
      <point x="353" y="56"/>
      <point x="420" y="99"/>
      <point x="438" y="184" type="curve" smooth="yes"/>
      <point x="455" y="262"/>
      <point x="414" y="298"/>
      <point x="325" y="319" type="curve" smooth="yes"/>
      <point x="260" y="334" type="line" smooth="yes"/>
      <point x="154" y="358"/>
      <point x="100" y="432"/>
      <point x="121" y="529" type="curve" smooth="yes"/>
      <point x="132" y="582"/>
      <point x="190" y="716"/>
    </contour>
  </outline>
</glyph>
<glyph name="T" format="2">
  <advance width="600"/>
  <unicode hex="0054"/>
  <outline>
    <contour>
      <point x="131" y="708" type="line"/>
      <point x="631" y="708" type="line"/>
      <point x="617" y="641" type="line"/>
      <point x="403" y="641" type="line"/>
      <point x="267" y="0" type="line"/>
      <point x="187" y="0" type="line"/>
      <point x="323" y="641" type="line"/>
      <point x="117" y="641" type="line"/>
    </contour>
  </outline>
</glyph>
<glyph name="U" format="2">
  <advance width="600"/>
  <unicode hex="0055"/>
  <anchor x="458" y="880" name="AccentCenter"/>
  <outline>
    <contour>
      <point x="160" y="708" type="line"/>
      <point x="241" y="708" type="line"/>
      <point x="147" y="265" type="line" smooth="yes"/>
      <point x="117" y="126"/>
      <point x="127" y="56"/>
      <point x="246" y="56" type="curve" smooth="yes"/>
      <point x="369" y="56"/>
      <point x="405" y="149"/>
      <point x="430" y="265" type="curve" smooth="yes"/>
      <point x="524" y="708" type="line"/>
      <point x="604" y="708" type="line"/>
      <point x="510" y="263" type="line" smooth="yes"/>
      <point x="475" y="98"/>
      <point x="401" y="-8"/>
      <point x="228" y="-8" type="curve" smooth="yes"/>
      <point x="61" y="-8"/>
      <point x="31" y="98"/>
      <point x="66" y="265" type="curve" smooth="yes"/>
    </contour>
  </outline>
</glyph>
<glyph name="V" format="2">
  <advance width="600"/>
  <unicode hex="0056"/>
  <outline>
    <contour>
      <point x="113" y="708" type="line"/>
      <point x="195" y="708" type="line"/>
      <point x="244" y="79" type="line"/>
      <point x="558" y="708" type="line"/>
      <point x="641" y="708" type="line"/>
      <point x="272" y="0" type="line"/>
      <point x="181" y="0" type="line"/>
    </contour>
  </outline>
</glyph>
<glyph name="W" format="2">
  <advance width="600"/>
  <unicode hex="0057"/>
  <outline>
    <contour>
      <point x="115" y="708" type="line"/>
      <point x="194" y="708" type="line"/>
      <point x="144" y="147" type="line"/>
      <point x="322" y="552" type="line"/>
      <point x="381" y="552" type="line"/>
      <point x="382" y="147" type="line"/>
      <point x="570" y="708" type="line"/>
      <point x="647" y="708" type="line"/>
      <point x="396" y="0" type="line"/>
      <point x="316" y="0" type="line"/>
      <point x="325" y="429" type="line"/>
      <point x="148" y="0" type="line"/>
      <point x="68" y="0" type="line"/>
    </contour>
  </outline>
</glyph>
<glyph name="X" format="2">
  <advance width="600"/>
  <unicode hex="0058"/>
  <outline>
    <contour>
      <point x="119" y="708" type="line"/>
      <point x="203" y="708" type="line"/>
      <point x="312" y="411" type="line"/>
      <point x="546" y="708" type="line"/>
      <point x="631" y="708" type="line"/>
      <point x="344" y="354" type="line"/>
      <point x="481" y="0" type="line"/>
      <point x="396" y="0" type="line"/>
      <point x="288" y="298" type="line"/>
      <point x="53" y="0" type="line"/>
      <point x="-31" y="0" type="line"/>
      <point x="256" y="354" type="line"/>
    </contour>
  </outline>
</glyph>
<glyph name="Y" format="2">
  <advance width="600"/>
  <unicode hex="0059"/>
  <anchor x="411" y="880" name="AccentCenter"/>
  <outline>
    <contour>
      <point x="107" y="708" type="line"/>
      <point x="199" y="708" type="line"/>
      <point x="304" y="342" type="line"/>
      <point x="563" y="708" type="line"/>
      <point x="655" y="708" type="line"/>
      <point x="329" y="270" type="line"/>
      <point x="272" y="0" type="line"/>
      <point x="192" y="0" type="line"/>
      <point x="249" y="270" type="line"/>
    </contour>
  </outline>
</glyph>
<glyph name="Z" format="2">
  <advance width="600"/>
  <unicode hex="005A"/>
  <outline>
    <contour>
      <point x="151" y="708" type="line"/>
      <point x="607" y="708" type="line"/>
      <point x="594" y="644" type="line"/>
      <point x="105" y="64" type="line"/>
      <point x="474" y="64" type="line"/>
      <point x="461" y="0" type="line"/>
      <point x="1" y="0" type="line"/>
      <point x="14" y="64" type="line"/>
      <point x="503" y="644" type="line"/>
      <point x="138" y="644" type="line"/>
    </contour>
  </outline>
</glyph>
<glyph name="bracketleft" format="2">
  <advance width="600"/>
  <unicode hex="005B"/>
  <outline>
    <contour>
      <point x="220" y="800" type="line"/>
      <point x="572" y="800" type="line"/>
      <point x="558" y="733" type="line"/>
      <point x="286" y="733" type="line"/>
      <point x="130" y="0" type="line"/>
      <point x="402" y="0" type="line"/>
      <point x="388" y="-64" type="line"/>
      <point x="36" y="-64" type="line"/>
    </contour>
  </outline>
</glyph>
<glyph name="backslash" format="2">
  <advance width="600"/>
  <unicode hex="005C"/>
  <outline>
    <contour>
      <point x="175" y="772" type="line"/>
      <point x="254" y="772" type="line"/>
      <point x="425" y="-34" type="line"/>
      <point x="346" y="-34" type="line"/>
    </contour>
  </outline>
</glyph>
<glyph name="bracketright" format="2">
  <advance width="600"/>
  <unicode hex="005D"/>
  <outline>
    <contour>
      <point x="252" y="800" type="line"/>
      <point x="604" y="800" type="line"/>
      <point x="420" y="-64" type="line"/>
      <point x="68" y="-64" type="line"/>
      <point x="82" y="0" type="line"/>
      <point x="356" y="0" type="line"/>
      <point x="512" y="733" type="line"/>
      <point x="238" y="733" type="line"/>
    </contour>
  </outline>
</glyph>
<glyph name="asciicircum" format="2">
  <advance width="600"/>
  <unicode hex="005E"/>
  <outline>
    <contour>
      <point x="65" y="717" type="line"/>
      <point x="227" y="852" type="line"/>
      <point x="294" y="852" type="line"/>
      <point x="398" y="717" type="line"/>
      <point x="344" y="666" type="line"/>
      <point x="247" y="785" type="line"/>
      <point x="98" y="666" type="line"/>
    </contour>
  </outline>
</glyph>
<glyph name="underscore" format="2">
  <advance width="600"/>
  <unicode hex="005F"/>
  <outline>
    <contour>
      <point x="71" y="0" type="line"/>
      <point x="555" y="0" type="line"/>
      <point x="541" y="-64" type="line"/>
      <point x="57" y="-64" type="line"/>
    </contour>
  </outline>
</glyph>
<glyph name="a" format="2">
  <advance width="600"/>
  <unicode hex="0061"/>
  <anchor x="411" y="687" name="AccentCenter"/>
  <anchor x="401" y="687" name="Ring"/>
  <outline>
    <contour>
      <point x="316" y="466" type="curve"/>
      <point x="188" y="466"/>
      <point x="130" y="327"/>
      <point x="130" y="199" type="curve" smooth="yes"/>
      <point x="130" y="133"/>
      <point x="162" y="65"/>
      <point x="236" y="62" type="curve"/>
      <point x="384" y="161" type="line"/>
      <point x="435" y="406" type="line"/>
      <point x="417" y="429"/>
      <point x="377" y="466"/>
    </contour>
    <contour>
      <point x="319" y="528" type="curve"/>
      <point x="367" y="528"/>
      <point x="421" y="506"/>
      <point x="448" y="468" type="curve"/>
      <point x="459" y="522" type="line"/>
      <point x="536" y="508" type="line"/>
      <point x="445" y="64" type="line"/>
      <point x="512" y="55" type="line"/>
      <point x="501" y="-10" type="line"/>
      <point x="353" y="11" type="line"/>
      <point x="369" y="87" type="line"/>
      <point x="236" y="-8" type="line"/>
      <point x="117" y="-4"/>
      <point x="50" y="87"/>
      <point x="50" y="189" type="curve" smooth="yes"/>
      <point x="50" y="376"/>
      <point x="137" y="528"/>
    </contour>
  </outline>
</glyph>
<glyph name="b" format="2">
  <advance width="600"/>
  <unicode hex="0062"/>
  <outline>
    <contour>
      <point x="187" y="716" type="line"/>
      <point x="267" y="716" type="line"/>
      <point x="215" y="469" type="line"/>
      <point x="231" y="500"/>
      <point x="286" y="528"/>
      <point x="346" y="528" type="curve" smooth="yes"/>
      <point x="472" y="528"/>
      <point x="541" y="438"/>
      <point x="541" y="302" type="curve" smooth="yes"/>
      <point x="541" y="111"/>
      <point x="414" y="-8"/>
      <point x="266" y="-8" type="curve" smooth="yes"/>
      <point x="143" y="-8"/>
      <point x="86" y="50"/>
      <point x="55" y="98" type="curve"/>
    </contour>
    <contour>
      <point x="328" y="464" type="curve" smooth="yes"/>
      <point x="265" y="464"/>
      <point x="219" y="433"/>
      <point x="200" y="399" type="curve"/>
      <point x="137" y="108" type="line"/>
      <point x="167" y="73"/>
      <point x="199" y="56"/>
      <point x="276" y="56" type="curve" smooth="yes"/>
      <point x="372" y="56"/>
      <point x="461" y="144"/>
      <point x="461" y="310" type="curve" smooth="yes"/>
      <point x="461" y="403"/>
      <point x="414" y="464"/>
    </contour>
  </outline>
</glyph>
<glyph name="c" format="2">
  <advance width="600"/>
  <unicode hex="0063"/>
  <outline>
    <contour>
      <point x="385" y="528" type="curve" smooth="yes"/>
      <point x="459" y="528"/>
      <point x="507" y="516"/>
      <point x="566" y="473" type="curve"/>
      <point x="529" y="418" type="line"/>
      <point x="481" y="454"/>
      <point x="438" y="464"/>
      <point x="376" y="464" type="curve" smooth="yes"/>
      <point x="275" y="464"/>
      <point x="160" y="399"/>
      <point x="160" y="192" type="curve" smooth="yes"/>
      <point x="160" y="124"/>
      <point x="197" y="56"/>
      <point x="297" y="56" type="curve" smooth="yes"/>
      <point x="362" y="56"/>
      <point x="421" y="74"/>
      <point x="478" y="108" type="curve"/>
      <point x="502" y="53" type="line"/>
      <point x="422" y="12"/>
      <point x="372" y="-8"/>
      <point x="279" y="-8" type="curve" smooth="yes"/>
      <point x="144" y="-8"/>
      <point x="80" y="94"/>
      <point x="80" y="192" type="curve" smooth="yes"/>
      <point x="80" y="436"/>
      <point x="246" y="528"/>
    </contour>
  </outline>
</glyph>
<glyph name="e" format="2">
  <advance width="600"/>
  <unicode hex="0065"/>
  <anchor x="409" y="687" name="AccentCenter"/>
  <outline>
    <contour>
      <point x="363" y="528" type="curve" smooth="yes"/>
      <point x="497" y="528"/>
      <point x="553" y="439"/>
      <point x="523" y="298" type="curve" smooth="yes"/>
      <point x="516" y="267"/>
      <point x="510" y="246"/>
      <point x="503" y="236" type="curve"/>
      <point x="154" y="236" type="line"/>
      <point x="139" y="141"/>
      <point x="167" y="56"/>
      <point x="292" y="56" type="curve" smooth="yes"/>
      <point x="347" y="56"/>
      <point x="404" y="68"/>
      <point x="460" y="101" type="curve"/>
      <point x="475" y="46" type="line"/>
      <point x="389" y="5"/>
      <point x="355" y="-8"/>
      <point x="275" y="-8" type="curve" smooth="yes"/>
      <point x="110" y="-8"/>
      <point x="44" y="112"/>
      <point x="76" y="261" type="curve" smooth="yes"/>
      <point x="113" y="436"/>
      <point x="221" y="528"/>
    </contour>
    <contour>
      <point x="348" y="464" type="curve" smooth="yes"/>
      <point x="251" y="464"/>
      <point x="189" y="405"/>
      <point x="166" y="295" type="curve"/>
      <point x="442" y="295" type="line"/>
      <point x="447" y="318" type="line" smooth="yes"/>
      <point x="467" y="413"/>
      <point x="440" y="464"/>
    </contour>
  </outline>
</glyph>
<glyph name="f" format="2">
  <advance width="600"/>
  <unicode hex="0066"/>
  <outline>
    <contour>
      <point x="504" y="780" type="curve" smooth="yes"/>
      <point x="552" y="780"/>
      <point x="577" y="770"/>
      <point x="608" y="758" type="curve"/>
      <point x="587" y="700" type="line"/>
      <point x="561" y="711"/>
      <point x="539" y="717"/>
      <point x="510" y="717" type="curve"/>
      <point x="445" y="717"/>
      <point x="394" y="686"/>
      <point x="382" y="633" type="curve" smooth="yes"/>
      <point x="356" y="520" type="line"/>
      <point x="563" y="520" type="line"/>
      <point x="549" y="456" type="line"/>
      <point x="342" y="456" type="line"/>
      <point x="241" y="-20" type="line"/>
      <point x="89" y="-218" type="line"/>
      <point x="25" y="-182" type="line"/>
      <point x="166" y="0" type="line"/>
      <point x="262" y="456" type="line"/>
      <point x="65" y="456" type="line"/>
      <point x="79" y="520" type="line"/>
      <point x="276" y="520" type="line"/>
      <point x="302" y="632" type="line" smooth="yes"/>
      <point x="322" y="718"/>
      <point x="402" y="780"/>
    </contour>
  </outline>
</glyph>
<glyph name="g" format="2">
  <advance width="600"/>
  <unicode hex="0067"/>
  <outline>
    <contour>
      <point x="344" y="528" type="curve" smooth="yes"/>
      <point x="401" y="528"/>
      <point x="441" y="512"/>
      <point x="461" y="497" type="curve"/>
      <point x="590" y="520" type="line"/>
      <point x="623" y="520" type="line"/>
      <point x="608" y="451" type="line"/>
      <point x="497" y="451" type="line"/>
      <point x="510" y="425"/>
      <point x="514" y="396"/>
      <point x="506" y="359" type="curve" smooth="yes"/>
      <point x="484" y="254"/>
      <point x="390" y="190"/>
      <point x="272" y="190" type="curve" smooth="yes"/>
      <point x="231" y="190"/>
      <point x="206" y="197"/>
      <point x="206" y="197" type="curve"/>
      <point x="135" y="119" type="line"/>
      <point x="385" y="92" type="line" smooth="yes"/>
      <point x="472" y="83"/>
      <point x="525" y="45"/>
      <point x="508" y="-35" type="curve" smooth="yes"/>
      <point x="489" y="-126"/>
      <point x="379" y="-192"/>
      <point x="241" y="-192" type="curve" smooth="yes"/>
      <point x="134" y="-192"/>
      <point x="61" y="-169"/>
      <point x="-11" y="-125" type="curve"/>
      <point x="-3" y="-85" type="line"/>
      <point x="126" y="51" type="line"/>
      <point x="47" y="60" type="line"/>
      <point x="58" y="112" type="line"/>
      <point x="149" y="214" type="line"/>
      <point x="97" y="251"/>
      <point x="92" y="291"/>
      <point x="106" y="359" type="curve" smooth="yes"/>
      <point x="128" y="461"/>
      <point x="236" y="528"/>
    </contour>
    <contour>
      <point x="194" y="44" type="line"/>
      <point x="72" y="-85" type="line"/>
      <point x="114" y="-106"/>
      <point x="186" y="-128"/>
      <point x="257" y="-128" type="curve" smooth="yes"/>
      <point x="353" y="-128"/>
      <point x="416" y="-92"/>
      <point x="427" y="-39" type="curve" smooth="yes"/>
      <point x="435" y="0"/>
      <point x="413" y="22"/>
      <point x="362" y="27" type="curve" smooth="yes"/>
    </contour>
    <contour>
      <point x="330" y="464" type="curve" smooth="yes"/>
      <point x="262" y="464"/>
      <point x="201" y="428"/>
      <point x="186" y="359" type="curve" smooth="yes"/>
      <point x="170" y="284"/>
      <point x="211" y="248"/>
      <point x="284" y="248" type="curve" smooth="yes"/>
      <point x="356" y="248"/>
      <point x="410" y="286"/>
      <point x="426" y="359" type="curve" smooth="yes"/>
      <point x="440" y="426"/>
      <point x="398" y="464"/>
    </contour>
  </outline>
</glyph>
<glyph name="h" format="2">
  <advance width="600"/>
  <unicode hex="0068"/>
  <outline>
    <contour>
      <point x="167" y="707" type="line"/>
      <point x="247" y="707" type="line"/>
      <point x="191" y="443" type="line"/>
      <point x="254" y="500"/>
      <point x="310" y="528"/>
      <point x="376" y="528" type="curve" smooth="yes"/>
      <point x="475" y="528"/>
      <point x="531" y="464"/>
      <point x="503" y="330" type="curve" smooth="yes"/>
      <point x="433" y="0" type="line"/>
      <point x="353" y="0" type="line"/>
      <point x="423" y="328" type="line" smooth="yes"/>
      <point x="444" y="425"/>
      <point x="415" y="464"/>
      <point x="339" y="464" type="curve" smooth="yes"/>
      <point x="281" y="464"/>
      <point x="234" y="433"/>
      <point x="176" y="372" type="curve"/>
      <point x="97" y="0" type="line"/>
      <point x="17" y="0" type="line"/>
    </contour>
  </outline>
</glyph>
<glyph name="j" format="2">
  <advance width="600"/>
  <unicode hex="006A"/>
  <outline>
    <contour>
      <point x="548" y="739" type="curve" smooth="yes"/>
      <point x="580" y="739"/>
      <point x="598" y="713"/>
      <point x="592" y="684" type="curve" smooth="yes"/>
      <point x="586" y="655"/>
      <point x="557" y="629"/>
      <point x="525" y="629" type="curve" smooth="yes"/>
      <point x="496" y="629"/>
      <point x="475" y="652"/>
      <point x="482" y="684" type="curve" smooth="yes"/>
      <point x="489" y="716"/>
      <point x="519" y="739"/>
    </contour>
    <contour>
      <point x="221" y="520" type="line"/>
      <point x="541" y="520" type="line"/>
      <point x="433" y="10" type="line" smooth="yes"/>
      <point x="406" y="-116"/>
      <point x="306" y="-192"/>
      <point x="168" y="-192" type="curve" smooth="yes"/>
      <point x="82" y="-192"/>
      <point x="33" y="-165"/>
      <point x="-8" y="-134" type="curve"/>
      <point x="42" y="-77" type="line"/>
      <point x="79" y="-107"/>
      <point x="112" y="-128"/>
      <point x="184" y="-128" type="curve" smooth="yes"/>
      <point x="262" y="-128"/>
      <point x="331" y="-94"/>
      <point x="353" y="10" type="curve" smooth="yes"/>
      <point x="448" y="456" type="line"/>
      <point x="208" y="456" type="line"/>
    </contour>
  </outline>
</glyph>
<glyph name="k" format="2">
  <advance width="600"/>
  <unicode hex="006B"/>
  <outline>
    <contour>
      <point x="167" y="708" type="line"/>
      <point x="247" y="708" type="line"/>
      <point x="162" y="309" type="line"/>
      <point x="242" y="309" type="line"/>
      <point x="474" y="520" type="line"/>
      <point x="572" y="520" type="line"/>
      <point x="296" y="275" type="line"/>
      <point x="465" y="0" type="line"/>
      <point x="367" y="0" type="line"/>
      <point x="224" y="245" type="line"/>
      <point x="149" y="245" type="line"/>
      <point x="97" y="0" type="line"/>
      <point x="17" y="0" type="line"/>
    </contour>
  </outline>
</glyph>
<glyph name="l" format="2">
  <advance width="600"/>
  <unicode hex="006C"/>
  <outline>
    <contour>
      <point x="121" y="724" type="line"/>
      <point x="383" y="724" type="line"/>
      <point x="243" y="64" type="line"/>
      <point x="449" y="64" type="line"/>
      <point x="435" y="0" type="line"/>
      <point x="149" y="0" type="line"/>
      <point x="289" y="660" type="line"/>
      <point x="107" y="660" type="line"/>
    </contour>
  </outline>
</glyph>
<glyph name="m" format="2">
  <advance width="600"/>
  <unicode hex="006D"/>
  <outline>
    <contour>
      <point x="105" y="520" type="line"/>
      <point x="169" y="520" type="line"/>
      <point x="166" y="458" type="line"/>
      <point x="186" y="499"/>
      <point x="250" y="528"/>
      <point x="292" y="528" type="curve" smooth="yes"/>
      <point x="343" y="528"/>
      <point x="369" y="508"/>
      <point x="372" y="461" type="curve"/>
      <point x="408" y="518"/>
      <point x="450" y="528"/>
      <point x="487" y="528" type="curve" smooth="yes"/>
      <point x="557" y="528"/>
      <point x="595" y="479"/>
      <point x="579" y="405" type="curve" smooth="yes"/>
      <point x="493" y="0" type="line"/>
      <point x="412" y="0" type="line"/>
      <point x="498" y="405" type="line" smooth="yes"/>
      <point x="507" y="446"/>
      <point x="488" y="464"/>
      <point x="456" y="464" type="curve" smooth="yes"/>
      <point x="423" y="464"/>
      <point x="394" y="441"/>
      <point x="371" y="405" type="curve"/>
      <point x="285" y="0" type="line"/>
      <point x="202" y="0" type="line"/>
      <point x="288" y="405" type="line" smooth="yes"/>
      <point x="296" y="443"/>
      <point x="284" y="464"/>
      <point x="251" y="464" type="curve" smooth="yes"/>
      <point x="214" y="464"/>
      <point x="178" y="433"/>
      <point x="163" y="405" type="curve"/>
      <point x="77" y="0" type="line"/>
      <point x="-5" y="0" type="line"/>
    </contour>
  </outline>
</glyph>
<glyph name="n" format="2">
  <advance width="600"/>
  <unicode hex="006E"/>
  <anchor x="390" y="687" name="AccentCenter"/>
  <outline>
    <contour>
      <point x="146" y="520" type="line"/>
      <point x="207" y="520" type="line"/>
      <point x="209" y="438" type="line"/>
      <point x="267" y="498"/>
      <point x="333" y="528"/>
      <point x="397" y="528" type="curve" smooth="yes"/>
      <point x="513" y="528"/>
      <point x="561" y="456"/>
      <point x="535" y="336" type="curve" smooth="yes"/>
      <point x="464" y="0" type="line"/>
      <point x="384" y="0" type="line"/>
      <point x="455" y="334" type="line" smooth="yes"/>
      <point x="474" y="422"/>
      <point x="447" y="462"/>
      <point x="366" y="462" type="curve" smooth="yes"/>
      <point x="305" y="462"/>
      <point x="246" y="436"/>
      <point x="197" y="383" type="curve"/>
      <point x="116" y="0" type="line"/>
      <point x="36" y="0" type="line"/>
    </contour>
  </outline>
</glyph>
<glyph name="o" format="2">
  <advance width="600"/>
  <unicode hex="006F"/>
  <anchor x="386" y="687" name="AccentCenter"/>
  <outline>
    <contour>
      <point x="345" y="464" type="curve" smooth="yes"/>
      <point x="244" y="464"/>
      <point x="176" y="392"/>
      <point x="148" y="259" type="curve" smooth="yes"/>
      <point x="120" y="127"/>
      <point x="158" y="56"/>
      <point x="259" y="56" type="curve" smooth="yes"/>
      <point x="361" y="56"/>
      <point x="424" y="127"/>
      <point x="452" y="259" type="curve" smooth="yes"/>
      <point x="480" y="391"/>
      <point x="445" y="464"/>
    </contour>
    <contour>
      <point x="359" y="528" type="curve" smooth="yes"/>
      <point x="505" y="528"/>
      <point x="568" y="427"/>
      <point x="532" y="259" type="curve" smooth="yes"/>
      <point x="498" y="100"/>
      <point x="388" y="-8"/>
      <point x="245" y="-8" type="curve" smooth="yes"/>
      <point x="103" y="-8"/>
      <point x="33" y="96"/>
      <point x="68" y="259" type="curve" smooth="yes"/>
      <point x="103" y="426"/>
      <point x="212" y="528"/>
    </contour>
  </outline>
</glyph>
<glyph name="p" format="2">
  <advance width="600"/>
  <unicode hex="0070"/>
  <outline>
    <contour>
      <point x="376" y="464" type="curve" smooth="yes"/>
      <point x="311" y="464"/>
      <point x="263" y="434"/>
      <point x="215" y="372" type="curve"/>
      <point x="169" y="155" type="line"/>
      <point x="192" y="86"/>
      <point x="224" y="56"/>
      <point x="289" y="56" type="curve" smooth="yes"/>
      <point x="401" y="56"/>
      <point x="465" y="133"/>
      <point x="493" y="263" type="curve" smooth="yes"/>
      <point x="522" y="400"/>
      <point x="481" y="464"/>
    </contour>
    <contour>
      <point x="167" y="520" type="line"/>
      <point x="229" y="520" type="line"/>
      <point x="228" y="430" type="line"/>
      <point x="273" y="499"/>
      <point x="354" y="528"/>
      <point x="414" y="528" type="curve" smooth="yes"/>
      <point x="550" y="528"/>
      <point x="609" y="433"/>
      <point x="572" y="260" type="curve" smooth="yes"/>
      <point x="537" y="96"/>
      <point x="429" y="-8"/>
      <point x="300" y="-8" type="curve" smooth="yes"/>
      <point x="239" y="-8"/>
      <point x="193" y="-5"/>
      <point x="153" y="78" type="curve"/>
      <point x="95" y="-192" type="line"/>
      <point x="15" y="-192" type="line"/>
    </contour>
  </outline>
</glyph>
<glyph name="q" format="2">
  <advance width="600"/>
  <unicode hex="0071"/>
  <outline>
    <contour>
      <point x="355" y="464" type="curve" smooth="yes"/>
      <point x="262" y="464"/>
      <point x="176" y="399"/>
      <point x="147" y="263" type="curve" smooth="yes"/>
      <point x="120" y="135"/>
      <point x="153" y="56"/>
      <point x="268" y="56" type="curve" smooth="yes"/>
      <point x="331" y="56"/>
      <point x="391" y="94"/>
      <point x="425" y="155" type="curve"/>
      <point x="471" y="372" type="line"/>
      <point x="451" y="430"/>
      <point x="408" y="464"/>
    </contour>
    <contour>
      <point x="521" y="520" type="line"/>
      <point x="583" y="520" type="line"/>
      <point x="431" y="-192" type="line"/>
      <point x="351" y="-192" type="line"/>
      <point x="407" y="71" type="line"/>
      <point x="349" y="9"/>
      <point x="289" y="-8"/>
      <point x="231" y="-8" type="curve" smooth="yes"/>
      <point x="103" y="-8"/>
      <point x="32" y="90"/>
      <point x="68" y="260" type="curve" smooth="yes"/>
      <point x="105" y="435"/>
      <point x="214" y="528"/>
      <point x="349" y="528" type="curve" smooth="yes"/>
      <point x="406" y="528"/>
      <point x="468" y="505"/>
      <point x="489" y="438" type="curve"/>
    </contour>
  </outline>
</glyph>
<glyph name="r" format="2">
  <advance width="600"/>
  <unicode hex="0072"/>
  <outline>
    <contour>
      <point x="213" y="520" type="line"/>
      <point x="235" y="386" type="line"/>
      <point x="275" y="448"/>
      <point x="370" y="528"/>
      <point x="494" y="528" type="curve" smooth="yes"/>
      <point x="526" y="528"/>
      <point x="552" y="525"/>
      <point x="596" y="514" type="curve"/>
      <point x="570" y="452" type="line"/>
      <point x="525" y="463"/>
      <point x="508" y="464"/>
      <point x="478" y="464" type="curve" smooth="yes"/>
      <point x="373" y="464"/>
      <point x="296" y="388"/>
      <point x="263" y="335" type="curve"/>
      <point x="192" y="0" type="line"/>
      <point x="112" y="0" type="line"/>
      <point x="184" y="341" type="line"/>
      <point x="125" y="520" type="line"/>
    </contour>
  </outline>
</glyph>
<glyph name="s" format="2">
  <advance width="600"/>
  <unicode hex="0073"/>
  <outline>
    <contour>
      <point x="358" y="528" type="curve" smooth="yes"/>
      <point x="445" y="528"/>
      <point x="490" y="513"/>
      <point x="546" y="474" type="curve"/>
      <point x="503" y="416" type="line"/>
      <point x="462" y="447"/>
      <point x="402" y="464"/>
      <point x="347" y="464" type="curve" smooth="yes"/>
      <point x="273" y="464"/>
      <point x="210" y="445"/>
      <point x="199" y="391" type="curve" smooth="yes"/>
      <point x="190" y="351"/>
      <point x="194" y="325"/>
      <point x="277" y="309" type="curve" smooth="yes"/>
      <point x="378" y="289" type="line" smooth="yes"/>
      <point x="474" y="270"/>
      <point x="518" y="223"/>
      <point x="500" y="138" type="curve" smooth="yes"/>
      <point x="478" y="33"/>
      <point x="374" y="-8"/>
      <point x="240" y="-8" type="curve" smooth="yes"/>
      <point x="157" y="-8"/>
      <point x="88" y="8"/>
      <point x="35" y="46" type="curve"/>
      <point x="77" y="106" type="line"/>
      <point x="122" y="75"/>
      <point x="191" y="57"/>
      <point x="252" y="57" type="curve" smooth="yes"/>
      <point x="363" y="57"/>
      <point x="415" y="83"/>
      <point x="426" y="134" type="curve" smooth="yes"/>
      <point x="437" y="186"/>
      <point x="420" y="208"/>
      <point x="340" y="223" type="curve" smooth="yes"/>
      <point x="239" y="242" type="line" smooth="yes"/>
      <point x="154" y="258"/>
      <point x="105" y="295"/>
      <point x="125" y="388" type="curve" smooth="yes"/>
      <point x="141" y="461"/>
      <point x="212" y="528"/>
    </contour>
  </outline>
</glyph>
<glyph name="t" format="2">
  <advance width="600"/>
  <unicode hex="0074"/>
  <outline>
    <contour>
      <point x="295" y="649" type="line"/>
      <point x="381" y="687" type="line"/>
      <point x="345" y="520" type="line"/>
      <point x="546" y="520" type="line"/>
      <point x="533" y="456" type="line"/>
      <point x="332" y="456" type="line"/>
      <point x="262" y="128" type="line" smooth="yes"/>
      <point x="253" y="86"/>
      <point x="283" y="55"/>
      <point x="332" y="55" type="curve"/>
      <point x="382" y="55"/>
      <point x="408" y="67"/>
      <point x="450" y="81" type="curve"/>
      <point x="456" y="24" type="line"/>
      <point x="418" y="9"/>
      <point x="369" y="-8"/>
      <point x="316" y="-8" type="curve" smooth="yes"/>
      <point x="209" y="-8"/>
      <point x="167" y="50"/>
      <point x="184" y="128" type="curve" smooth="yes"/>
      <point x="254" y="456" type="line"/>
      <point x="106" y="456" type="line"/>
      <point x="119" y="520" type="line"/>
      <point x="267" y="520" type="line"/>
    </contour>
  </outline>
</glyph>
<glyph name="u" format="2">
  <advance width="600"/>
  <unicode hex="0075"/>
  <anchor x="392" y="687" name="AccentCenter"/>
  <outline>
    <contour>
      <point x="148" y="520" type="line"/>
      <point x="228" y="520" type="line"/>
      <point x="159" y="197" type="line" smooth="yes"/>
      <point x="139" y="103"/>
      <point x="152" y="56"/>
      <point x="223" y="56" type="curve" smooth="yes"/>
      <point x="293" y="56"/>
      <point x="347" y="88"/>
      <point x="423" y="168" type="curve"/>
      <point x="498" y="520" type="line"/>
      <point x="576" y="520" type="line"/>
      <point x="466" y="0" type="line"/>
      <point x="404" y="0" type="line"/>
      <point x="411" y="103" type="line"/>
      <point x="391" y="84"/>
      <point x="314" y="-8"/>
      <point x="185" y="-8" type="curve" smooth="yes"/>
      <point x="142" y="-8"/>
      <point x="36" y="-8"/>
      <point x="79" y="195" type="curve" smooth="yes"/>
    </contour>
  </outline>
</glyph>
<glyph name="v" format="2">
  <advance width="600"/>
  <unicode hex="0076"/>
  <outline>
    <contour>
      <point x="74" y="520" type="line"/>
      <point x="153" y="520" type="line"/>
      <point x="209" y="83" type="line"/>
      <point x="329" y="168"/>
      <point x="427" y="317"/>
      <point x="480" y="520" type="curve"/>
      <point x="554" y="520" type="line"/>
      <point x="497" y="266"/>
      <point x="366" y="89"/>
      <point x="209" y="0" type="curve"/>
      <point x="145" y="0" type="line"/>
    </contour>
  </outline>
</glyph>
<glyph name="w" format="2">
  <advance width="600"/>
  <unicode hex="0077"/>
  <outline>
    <contour>
      <point x="91" y="520" type="line"/>
      <point x="176" y="520" type="line"/>
      <point x="140" y="110" type="line"/>
      <point x="313" y="462" type="line"/>
      <point x="388" y="462" type="line"/>
      <point x="404" y="114" type="line"/>
      <point x="544" y="520" type="line"/>
      <point x="631" y="520" type="line"/>
      <point x="424" y="0" type="line"/>
      <point x="340" y="0" type="line"/>
      <point x="331" y="369" type="line"/>
      <point x="157" y="0" type="line"/>
      <point x="75" y="0" type="line"/>
    </contour>
  </outline>
</glyph>
<glyph name="x" format="2">
  <advance width="600"/>
  <unicode hex="0078"/>
  <outline>
    <contour>
      <point x="119" y="520" type="line"/>
      <point x="216" y="520" type="line"/>
      <point x="319" y="311" type="line"/>
      <point x="507" y="520" type="line"/>
      <point x="603" y="520" type="line"/>
      <point x="357" y="260" type="line"/>
      <point x="493" y="0" type="line"/>
      <point x="397" y="0" type="line"/>
      <point x="298" y="211" type="line"/>
      <point x="106" y="0" type="line"/>
      <point x="9" y="0" type="line"/>
      <point x="256" y="260" type="line"/>
    </contour>
  </outline>
</glyph>
<glyph name="y" format="2">
  <advance width="600"/>
  <unicode hex="0079"/>
  <anchor x="420" y="687" name="AccentCenter"/>
  <outline>
    <contour>
      <point x="130" y="520" type="line"/>
      <point x="229" y="520" type="line"/>
      <point x="285" y="133" type="line"/>
      <point x="285" y="64" type="line"/>
      <point x="319" y="133" type="line"/>
      <point x="544" y="520" type="line"/>
      <point x="636" y="520" type="line"/>
      <point x="177" y="-192" type="line"/>
      <point x="91" y="-192" type="line"/>
      <point x="240" y="22" type="line"/>
    </contour>
  </outline>
</glyph>
<glyph name="z" format="2">
  <advance width="600"/>
  <unicode hex="007A"/>
  <outline>
    <contour>
      <point x="143" y="520" type="line"/>
      <point x="575" y="520" type="line"/>
      <point x="561" y="451" type="line"/>
      <point x="137" y="65" type="line"/>
      <point x="485" y="65" type="line"/>
      <point x="471" y="0" type="line"/>
      <point x="31" y="0" type="line"/>
      <point x="45" y="65" type="line"/>
      <point x="473" y="451" type="line"/>
      <point x="129" y="451" type="line"/>
    </contour>
  </outline>
</glyph>
<glyph name="braceleft" format="2">
  <advance width="600"/>
  <unicode hex="007B"/>
  <outline>
    <contour>
      <point x="479" y="800" type="curve"/>
      <point x="550" y="800" type="line"/>
      <point x="550" y="734" type="line"/>
      <point x="478" y="734" type="line"/>
      <point x="398" y="734"/>
      <point x="347" y="681"/>
      <point x="337" y="616" type="curve"/>
      <point x="337" y="502" type="line"/>
      <point x="318" y="420"/>
      <point x="274" y="383"/>
      <point x="194" y="361" type="curve"/>
      <point x="235" y="353"/>
      <point x="274" y="310"/>
      <point x="281" y="249" type="curve"/>
      <point x="281" y="86" type="line"/>
      <point x="299" y="26"/>
      <point x="341" y="-14"/>
      <point x="413" y="-14" type="curve"/>
      <point x="453" y="-14" type="line"/>
      <point x="453" y="-81" type="line"/>
      <point x="404" y="-81" type="line"/>
      <point x="295" y="-80"/>
      <point x="218" y="-14"/>
      <point x="201" y="91" type="curve"/>
      <point x="204" y="247" type="line"/>
      <point x="195" y="299"/>
      <point x="149" y="330"/>
      <point x="105" y="330" type="curve"/>
      <point x="50" y="330" type="line"/>
      <point x="50" y="396" type="line"/>
      <point x="127" y="396" type="line"/>
      <point x="192" y="396"/>
      <point x="240" y="432"/>
      <point x="255" y="502" type="curve"/>
      <point x="257" y="617" type="line"/>
      <point x="277" y="713"/>
      <point x="346" y="800"/>
    </contour>
  </outline>
</glyph>
<glyph name="braceright" format="2">
  <advance width="600"/>
  <unicode hex="007D"/>
  <note>
ATTENTION : Forme différente de sa contrepartie
</note>
  <outline>
    <contour>
      <point x="147" y="800" type="line"/>
      <point x="196" y="800" type="line"/>
      <point x="305" y="799"/>
      <point x="382" y="733"/>
      <point x="399" y="628" type="curve"/>
      <point x="396" y="472" type="line"/>
      <point x="405" y="420"/>
      <point x="451" y="389"/>
      <point x="495" y="389" type="curve"/>
      <point x="550" y="389" type="line"/>
      <point x="550" y="323" type="line"/>
      <point x="473" y="323" type="line"/>
      <point x="408" y="323"/>
      <point x="360" y="287"/>
      <point x="345" y="217" type="curve"/>
      <point x="343" y="102" type="line"/>
      <point x="323" y="6"/>
      <point x="254" y="-81"/>
      <point x="121" y="-81" type="curve"/>
      <point x="50" y="-81" type="line"/>
      <point x="50" y="-15" type="line"/>
      <point x="122" y="-15" type="line"/>
      <point x="202" y="-15"/>
      <point x="253" y="38"/>
      <point x="263" y="103" type="curve"/>
      <point x="263" y="217" type="line"/>
      <point x="282" y="299"/>
      <point x="326" y="336"/>
      <point x="406" y="358" type="curve"/>
      <point x="365" y="366"/>
      <point x="326" y="409"/>
      <point x="319" y="470" type="curve"/>
      <point x="319" y="633" type="line"/>
      <point x="301" y="693"/>
      <point x="259" y="733"/>
      <point x="187" y="733" type="curve"/>
      <point x="147" y="733" type="line"/>
    </contour>
  </outline>
</glyph>
<glyph name="asciitilde" format="2">
  <advance width="600"/>
  <unicode hex="007E"/>
  <outline>
    <contour>
      <point x="27" y="220" type="line"/>
      <point x="57" y="317"/>
      <point x="117" y="396"/>
      <point x="215" y="396" type="curve" smooth="yes"/>
      <point x="311" y="396"/>
      <point x="335" y="286"/>
      <point x="401" y="286" type="curve" smooth="yes"/>
      <point x="452" y="286"/>
      <point x="482" y="328"/>
      <point x="502" y="396" type="curve"/>
      <point x="577" y="389" type="line"/>
      <point x="546" y="282"/>
      <point x="479" y="215"/>
      <point x="381" y="215" type="curve" smooth="yes"/>
      <point x="279" y="215"/>
      <point x="277" y="326"/>
      <point x="201" y="326" type="curve" smooth="yes"/>
      <point x="135" y="326"/>
      <point x="112" y="259"/>
      <point x="95" y="213" type="curve"/>
    </contour>
  </outline>
</glyph>
<glyph name="sterling" format="2">
  <advance width="600"/>
  <unicode hex="00A3"/>
  <outline>
    <contour>
      <point x="428" y="716" type="curve" smooth="yes"/>
      <point x="537" y="716"/>
      <point x="590" y="662"/>
      <point x="613" y="636" type="curve"/>
      <point x="570" y="584" type="line"/>
      <point x="525" y="630"/>
      <point x="481" y="651"/>
      <point x="411" y="651" type="curve" smooth="yes"/>
      <point x="335" y="651"/>
      <point x="249" y="607"/>
      <point x="232" y="526" type="curve" smooth="yes"/>
      <point x="224" y="489"/>
      <point x="225" y="463"/>
      <point x="243" y="382" type="curve"/>
      <point x="433" y="382" type="line"/>
      <point x="418" y="312" type="line"/>
      <point x="254" y="312" type="line"/>
      <point x="255" y="292"/>
      <point x="254" y="274"/>
      <point x="251" y="258" type="curve" smooth="yes"/>
      <point x="230" y="157"/>
      <point x="176" y="107"/>
      <point x="106" y="69" type="curve"/>
      <point x="479" y="69" type="line"/>
      <point x="464" y="0" type="line"/>
      <point x="-14" y="0" type="line"/>
      <point x="4" y="85" type="line"/>
      <point x="96" y="104"/>
      <point x="153" y="165"/>
      <point x="175" y="268" type="curve" smooth="yes"/>
      <point x="178" y="281"/>
      <point x="179" y="296"/>
      <point x="178" y="312" type="curve"/>
      <point x="24" y="312" type="line"/>
      <point x="39" y="382" type="line"/>
      <point x="168" y="382" type="line"/>
      <point x="157" y="422"/>
      <point x="146" y="478"/>
      <point x="156" y="526" type="curve" smooth="yes"/>
      <point x="171" y="595"/>
      <point x="256" y="716"/>
    </contour>
  </outline>
</glyph>
<glyph name="currency" format="2">
  <advance width="600"/>
  <unicode hex="00A4"/>
  <outline>
    <contour>
      <point x="450" y="175" type="line"/>
      <point x="544" y="56" type="line"/>
      <point x="473" y="-2" type="line"/>
      <point x="379" y="116" type="line"/>
    </contour>
    <contour>
      <point x="159" y="116" type="line"/>
      <point x="15" y="-2" type="line"/>
      <point x="-30" y="56" type="line"/>
      <point x="114" y="174" type="line"/>
    </contour>
    <contour>
      <point x="151" y="347" type="line"/>
      <point x="58" y="466" type="line"/>
      <point x="127" y="523" type="line"/>
      <point x="221" y="405" type="line"/>
    </contour>
    <contour>
      <point x="440" y="404" type="line"/>
      <point x="585" y="523" type="line"/>
      <point x="630" y="465" type="line"/>
      <point x="485" y="346" type="line"/>
    </contour>
    <contour>
      <point x="335" y="425" type="curve" smooth="yes"/>
      <point x="238" y="425"/>
      <point x="160" y="351"/>
      <point x="140" y="259" type="curve" smooth="yes"/>
      <point x="120" y="167"/>
      <point x="167" y="94"/>
      <point x="265" y="94" type="curve" smooth="yes"/>
      <point x="362" y="94"/>
      <point x="440" y="167"/>
      <point x="460" y="259" type="curve" smooth="yes"/>
      <point x="480" y="351"/>
      <point x="432" y="425"/>
    </contour>
    <contour>
      <point x="249" y="22" type="curve" smooth="yes"/>
      <point x="120" y="22"/>
      <point x="40" y="128"/>
      <point x="68" y="260" type="curve" smooth="yes"/>
      <point x="96" y="392"/>
      <point x="221" y="497"/>
      <point x="350" y="497" type="curve" smooth="yes"/>
      <point x="479" y="497"/>
      <point x="560" y="392"/>
      <point x="532" y="260" type="curve" smooth="yes"/>
      <point x="504" y="128"/>
      <point x="378" y="22"/>
    </contour>
  </outline>
</glyph>
<glyph name="section" format="2">
  <advance width="600"/>
  <unicode hex="00A7"/>
  <outline>
    <contour>
      <point x="415" y="768" type="curve" smooth="yes"/>
      <point x="508" y="768"/>
      <point x="566" y="737"/>
      <point x="611" y="696" type="curve"/>
      <point x="563" y="644" type="line"/>
      <point x="529" y="677"/>
      <point x="469" y="703"/>
      <point x="396" y="703" type="curve" smooth="yes"/>
      <point x="357" y="703"/>
      <point x="232" y="694"/>
      <point x="208" y="580" type="curve" smooth="yes"/>
      <point x="192" y="503"/>
      <point x="219" y="467"/>
      <point x="324" y="444" type="curve"/>
      <point x="372" y="433" type="line" smooth="yes"/>
      <point x="497" y="405"/>
      <point x="549" y="338"/>
      <point x="526" y="232" type="curve" smooth="yes"/>
      <point x="514" y="177"/>
      <point x="483" y="131"/>
      <point x="434" y="96" type="curve"/>
      <point x="443" y="69"/>
      <point x="445" y="38"/>
      <point x="437" y="2" type="curve" smooth="yes"/>
      <point x="414" y="-108"/>
      <point x="308" y="-191"/>
      <point x="153" y="-191" type="curve" smooth="yes"/>
      <point x="52" y="-191"/>
      <point x="-19" y="-152"/>
      <point x="-65" y="-104" type="curve"/>
      <point x="-17" y="-43" type="line"/>
      <point x="25" y="-96"/>
      <point x="102" y="-127"/>
      <point x="171" y="-127" type="curve" smooth="yes"/>
      <point x="239" y="-127"/>
      <point x="338" y="-108"/>
      <point x="361" y="0" type="curve" smooth="yes"/>
      <point x="374" y="60"/>
      <point x="361" y="110"/>
      <point x="237" y="137" type="curve"/>
      <point x="193" y="147" type="line"/>
      <point x="115" y="161"/>
      <point x="11" y="207"/>
      <point x="41" y="348" type="curve" smooth="yes"/>
      <point x="53" y="403"/>
      <point x="83" y="447"/>
      <point x="133" y="482" type="curve"/>
      <point x="123" y="510"/>
      <point x="122" y="543"/>
      <point x="130" y="580" type="curve" smooth="yes"/>
      <point x="152" y="682"/>
      <point x="254" y="768"/>
    </contour>
    <contour>
      <point x="167" y="429" type="curve"/>
      <point x="142" y="409"/>
      <point x="126" y="383"/>
      <point x="119" y="350" type="curve" smooth="yes"/>
      <point x="103" y="274"/>
      <point x="130" y="236"/>
      <point x="235" y="213" type="curve" smooth="yes"/>
      <point x="283" y="202" type="line" smooth="yes"/>
      <point x="336" y="191"/>
      <point x="374" y="172"/>
      <point x="401" y="147" type="curve"/>
      <point x="426" y="168"/>
      <point x="443" y="197"/>
      <point x="450" y="232" type="curve" smooth="yes"/>
      <point x="463" y="292"/>
      <point x="450" y="341"/>
      <point x="326" y="368" type="curve"/>
      <point x="282" y="378" type="line"/>
      <point x="232" y="387"/>
      <point x="194" y="404"/>
    </contour>
  </outline>
</glyph>
<glyph name="mu" format="2">
  <advance width="600"/>
  <unicode hex="00B5"/>
  <outline>
    <contour>
      <point x="146" y="519" type="line"/>
      <point x="224" y="519" type="line"/>
      <point x="141" y="128" type="line"/>
      <point x="146" y="112"/>
      <point x="170" y="56"/>
      <point x="262" y="56" type="curve" smooth="yes"/>
      <point x="329" y="56"/>
      <point x="401" y="99"/>
      <point x="427" y="220" type="curve" smooth="yes"/>
      <point x="490" y="519" type="line"/>
      <point x="568" y="519" type="line"/>
      <point x="480" y="102" type="line"/>
      <point x="473" y="68"/>
      <point x="483" y="57"/>
      <point x="509" y="57" type="curve"/>
      <point x="526" y="57" type="line"/>
      <point x="514" y="0" type="line"/>
      <point x="508" y="-2"/>
      <point x="480" y="-8"/>
      <point x="462" y="-8" type="curve"/>
      <point x="410" y="-8"/>
      <point x="393" y="23"/>
      <point x="398" y="70" type="curve"/>
      <point x="363" y="24"/>
      <point x="310" y="-8"/>
      <point x="246" y="-8" type="curve" smooth="yes"/>
      <point x="187" y="-8"/>
      <point x="144" y="5"/>
      <point x="115" y="56" type="curve"/>
      <point x="119" y="38"/>
      <point x="119" y="23"/>
      <point x="115" y="4" type="curve"/>
      <point x="74" y="-191" type="line"/>
      <point x="-4" y="-191" type="line"/>
    </contour>
  </outline>
</glyph>
<glyph name="AE" format="2">
  <advance width="600"/>
  <unicode hex="00C6"/>
  <outline>
    <contour>
      <point x="447" y="708" type="line"/>
      <point x="929" y="708" type="line"/>
      <point x="915" y="642" type="line"/>
      <point x="555" y="642" type="line"/>
      <point x="508" y="418" type="line"/>
      <point x="790" y="418" type="line"/>
      <point x="775" y="348" type="line"/>
      <point x="493" y="348" type="line"/>
      <point x="433" y="66" type="line"/>
      <point x="793" y="66" type="line"/>
      <point x="779" y="0" type="line"/>
      <point x="343" y="0" type="line"/>
      <point x="381" y="182" type="line"/>
      <point x="167" y="182" type="line"/>
      <point x="43" y="0" type="line"/>
      <point x="-39" y="0" type="line"/>
    </contour>
    <contour>
      <point x="478" y="638" type="line"/>
      <point x="212" y="248" type="line"/>
      <point x="395" y="248" type="line"/>
    </contour>
  </outline>
</glyph>
<glyph name="Eth" format="2">
  <advance width="600"/>
  <unicode hex="00D0"/>
  <outline>
    <contour>
      <point x="35" y="400" type="line"/>
      <point x="271" y="400" type="line"/>
      <point x="257" y="336" type="line"/>
      <point x="21" y="336" type="line"/>
    </contour>
    <component base="D"/>
  </outline>
</glyph>
<glyph name="ae" format="2">
  <advance width="600"/>
  <unicode hex="00E6"/>
  <outline>
    <contour>
      <point x="315" y="528" type="curve" smooth="yes"/>
      <point x="392" y="528"/>
      <point x="440" y="502"/>
      <point x="459" y="452" type="curve"/>
      <point x="509" y="502"/>
      <point x="572" y="528"/>
      <point x="652" y="528" type="curve" smooth="yes"/>
      <point x="779" y="528"/>
      <point x="840" y="439"/>
      <point x="810" y="298" type="curve" smooth="yes"/>
      <point x="803" y="267"/>
      <point x="797" y="246"/>
      <point x="791" y="236" type="curve"/>
      <point x="439" y="236" type="line"/>
      <point x="430" y="196"/>
      <point x="403" y="56"/>
      <point x="559" y="56" type="curve" smooth="yes"/>
      <point x="629" y="56"/>
      <point x="678" y="74"/>
      <point x="738" y="121" type="curve"/>
      <point x="763" y="71" type="line"/>
      <point x="689" y="19"/>
      <point x="611" y="-8"/>
      <point x="538" y="-8" type="curve" smooth="yes"/>
      <point x="454" y="-8"/>
      <point x="399" y="26"/>
      <point x="373" y="86" type="curve"/>
      <point x="320" y="38"/>
      <point x="247" y="-8"/>
      <point x="147" y="-8" type="curve" smooth="yes"/>
      <point x="41" y="-8"/>
      <point x="-4" y="46"/>
      <point x="18" y="149" type="curve" smooth="yes"/>
      <point x="39" y="249"/>
      <point x="128" y="307"/>
      <point x="272" y="307" type="curve" smooth="yes"/>
      <point x="378" y="307" type="line"/>
      <point x="386" y="345" type="line" smooth="yes"/>
      <point x="403" y="424"/>
      <point x="373" y="464"/>
      <point x="296" y="464" type="curve" smooth="yes"/>
      <point x="242" y="464"/>
      <point x="189" y="446"/>
      <point x="139" y="411" type="curve"/>
      <point x="111" y="456" type="line"/>
      <point x="187" y="507"/>
      <point x="246" y="528"/>
    </contour>
    <contour>
      <point x="365" y="245" type="line"/>
      <point x="256" y="245" type="line" smooth="yes"/>
      <point x="158" y="245"/>
      <point x="112" y="214"/>
      <point x="98" y="148" type="curve" smooth="yes"/>
      <point x="85" y="87"/>
      <point x="116" y="56"/>
      <point x="189" y="56" type="curve" smooth="yes"/>
      <point x="242" y="56"/>
      <point x="307" y="93"/>
      <point x="340" y="129" type="curve"/>
    </contour>
    <contour>
      <point x="627" y="464" type="curve" smooth="yes"/>
      <point x="550" y="464"/>
      <point x="478" y="424"/>
      <point x="451" y="295" type="curve"/>
      <point x="734" y="295" type="line"/>
      <point x="739" y="318" type="line" smooth="yes"/>
      <point x="759" y="413"/>
      <point x="718" y="464"/>
    </contour>
  </outline>
</glyph>
<glyph name="eth" format="2">
  <advance width="600"/>
  <unicode hex="00F0"/>
  <outline>
    <contour>
      <point x="265" y="716" type="curve"/>
      <point x="370" y="716" type="line"/>
      <point x="395" y="698"/>
      <point x="414" y="682"/>
      <point x="426" y="667" type="curve"/>
      <point x="541" y="709" type="line"/>
      <point x="528" y="647" type="line"/>
      <point x="461" y="623" type="line"/>
      <point x="532" y="528"/>
      <point x="550" y="400"/>
      <point x="520" y="261" type="curve" smooth="yes"/>
      <point x="486" y="103"/>
      <point x="365" y="-8"/>
      <point x="225" y="-8" type="curve" smooth="yes"/>
      <point x="76" y="-8"/>
      <point x="6" y="100"/>
      <point x="43" y="275" type="curve" smooth="yes"/>
      <point x="74" y="419"/>
      <point x="200" y="528"/>
      <point x="324" y="528" type="curve" smooth="yes"/>
      <point x="379" y="528"/>
      <point x="423" y="510"/>
      <point x="452" y="474" type="curve"/>
      <point x="443" y="512"/>
      <point x="421" y="553"/>
      <point x="388" y="596" type="curve"/>
      <point x="243" y="543" type="line"/>
      <point x="254" y="605" type="line"/>
      <point x="352" y="640" type="line"/>
      <point x="322" y="674"/>
      <point x="293" y="699"/>
    </contour>
    <contour>
      <point x="322" y="463" type="curve" smooth="yes"/>
      <point x="225" y="463"/>
      <point x="144" y="387"/>
      <point x="118" y="267" type="curve" smooth="yes"/>
      <point x="91" y="138"/>
      <point x="131" y="57"/>
      <point x="240" y="57" type="curve" smooth="yes"/>
      <point x="340" y="57"/>
      <point x="418" y="139"/>
      <point x="443" y="256" type="curve" smooth="yes"/>
      <point x="457" y="324"/>
      <point x="461" y="375"/>
      <point x="446" y="412" type="curve"/>
      <point x="411" y="446"/>
      <point x="370" y="463"/>
    </contour>
  </outline>
</glyph>
<glyph name="thorn" format="2">
  <advance width="600"/>
  <unicode hex="00FE"/>
  <outline>
    <contour>
      <point x="176" y="708" type="line"/>
      <point x="256" y="708" type="line"/>
      <point x="197" y="430" type="line"/>
      <point x="265" y="495"/>
      <point x="328" y="528"/>
      <point x="389" y="528" type="curve" smooth="yes"/>
      <point x="525" y="528"/>
      <point x="579" y="433"/>
      <point x="542" y="260" type="curve" smooth="yes"/>
      <point x="507" y="96"/>
      <point x="404" y="-8"/>
      <point x="275" y="-8" type="curve" smooth="yes"/>
      <point x="260" y="-8"/>
      <point x="162" y="-5"/>
      <point x="122" y="78" type="curve"/>
      <point x="64" y="-192" type="line"/>
      <point x="-16" y="-192" type="line"/>
    </contour>
    <contour>
      <point x="352" y="464" type="curve" smooth="yes"/>
      <point x="287" y="464"/>
      <point x="232" y="434"/>
      <point x="184" y="372" type="curve"/>
      <point x="138" y="155" type="line"/>
      <point x="161" y="86"/>
      <point x="200" y="56"/>
      <point x="265" y="56" type="curve" smooth="yes"/>
      <point x="362" y="56"/>
      <point x="435" y="133"/>
      <point x="463" y="263" type="curve" smooth="yes"/>
      <point x="492" y="400"/>
      <point x="457" y="464"/>
    </contour>
  </outline>
</glyph>
<glyph name="dotlessi" format="2">
  <advance width="600"/>
  <unicode hex="0131"/>
  <anchor x="382" y="687" name="AccentCenter"/>
  <outline>
    <contour>
      <point x="113" y="520" type="line"/>
      <point x="385" y="520" type="line"/>
      <point x="288" y="64" type="line"/>
      <point x="487" y="64" type="line"/>
      <point x="474" y="0" type="line"/>
      <point x="195" y="0" type="line"/>
      <point x="292" y="456" type="line"/>
      <point x="100" y="456" type="line"/>
    </contour>
  </outline>
</glyph>
<glyph name="acutecomb" format="2">
  <advance width="0"/>
  <unicode hex="0301"/>
  <anchor x="-1" y="834" name="_AccentCenter"/>
  <outline>
    <contour>
      <point x="101" y="931" type="line"/>
      <point x="134" y="867" type="line"/>
      <point x="-111" y="744" type="line"/>
      <point x="-135" y="796" type="line"/>
    </contour>
  </outline>
</glyph>
<glyph name="uni0302" format="2">
  <unicode hex="0302"/>
  <anchor x="-1" y="834" name="_AccentCenter"/>
  <outline>
    <contour>
      <point x="66" y="930" type="line"/>
      <point x="134" y="930" type="line"/>
      <point x="238" y="795" type="line"/>
      <point x="183" y="744" type="line"/>
      <point x="86" y="864" type="line"/>
      <point x="-63" y="744" type="line"/>
      <point x="-96" y="795" type="line"/>
    </contour>
  </outline>
</glyph>
<glyph name="tildecomb" format="2">
  <unicode hex="0303"/>
  <anchor x="0" y="845" name="_AccentCenter"/>
  <outline>
    <contour>
      <point x="20" y="909" type="curve" smooth="yes"/>
      <point x="85" y="909"/>
      <point x="102" y="846"/>
      <point x="140" y="846" type="curve" smooth="yes"/>
      <point x="175" y="846"/>
      <point x="192" y="868"/>
      <point x="201" y="905" type="curve"/>
      <point x="273" y="905" type="line"/>
      <point x="255" y="818"/>
      <point x="193" y="782"/>
      <point x="125" y="782" type="curve" smooth="yes"/>
      <point x="53" y="782"/>
      <point x="53" y="844"/>
      <point x="10" y="844" type="curve" smooth="yes"/>
      <point x="-28" y="844"/>
      <point x="-46" y="823"/>
      <point x="-54" y="786" type="curve"/>
      <point x="-126" y="786" type="line"/>
      <point x="-111" y="857"/>
      <point x="-79" y="909"/>
    </contour>
  </outline>
</glyph>
<glyph name="uni0304" format="2">
  <advance width="0"/>
  <unicode hex="0304"/>
  <anchor x="-0" y="833" name="AccentCenter"/>
  <outline>
    <contour>
      <point x="-121" y="865" type="line"/>
      <point x="135" y="865" type="line"/>
      <point x="121" y="801" type="line"/>
      <point x="-135" y="801" type="line"/>
    </contour>
  </outline>
</glyph>
<glyph name="uni0308" format="2">
  <advance width="0"/>
  <unicode hex="0308"/>
  <anchor x="-0" y="854" name="_AccentCenter"/>
  <outline>
    <contour>
      <point x="-92" y="909" type="curve" smooth="yes"/>
      <point x="-63" y="909"/>
      <point x="-43" y="886"/>
      <point x="-50" y="854" type="curve" smooth="yes"/>
      <point x="-56" y="824"/>
      <point x="-86" y="800"/>
      <point x="-116" y="800" type="curve" smooth="yes"/>
      <point x="-147" y="800"/>
      <point x="-166" y="825"/>
      <point x="-160" y="854" type="curve" smooth="yes"/>
      <point x="-154" y="883"/>
      <point x="-124" y="909"/>
    </contour>
    <contour>
      <point x="116" y="909" type="curve" smooth="yes"/>
      <point x="148" y="909"/>
      <point x="166" y="883"/>
      <point x="160" y="854" type="curve" smooth="yes"/>
      <point x="154" y="825"/>
      <point x="123" y="800"/>
      <point x="92" y="800" type="curve" smooth="yes"/>
      <point x="62" y="800"/>
      <point x="44" y="824"/>
      <point x="50" y="854" type="curve" smooth="yes"/>
      <point x="57" y="886"/>
      <point x="87" y="909"/>
    </contour>
  </outline>
</glyph>
<glyph name="uni030A" format="2">
  <unicode hex="030A"/>
  <anchor x="0" y="840" name="_Ring"/>
  <outline>
    <contour>
      <point x="101" y="937" type="curve" smooth="yes"/>
      <point x="156" y="937"/>
      <point x="192" y="898"/>
      <point x="180" y="840" type="curve" smooth="yes"/>
      <point x="168" y="782"/>
      <point x="114" y="743"/>
      <point x="59" y="743" type="curve" smooth="yes"/>
      <point x="4" y="743"/>
      <point x="-32" y="782"/>
      <point x="-20" y="840" type="curve" smooth="yes"/>
      <point x="-8" y="898"/>
      <point x="46" y="937"/>
    </contour>
    <contour>
      <point x="89" y="883" type="curve" smooth="yes"/>
      <point x="63" y="883"/>
      <point x="40" y="866"/>
      <point x="34" y="840" type="curve" smooth="yes"/>
      <point x="28" y="814"/>
      <point x="45" y="797"/>
      <point x="71" y="797" type="curve" smooth="yes"/>
      <point x="97" y="797"/>
      <point x="120" y="814"/>
      <point x="126" y="840" type="curve" smooth="yes"/>
      <point x="132" y="866"/>
      <point x="115" y="883"/>
    </contour>
  </outline>
</glyph>
<glyph name="uni0327" format="2">
  <unicode hex="0327"/>
  <outline>
    <contour>
      <point x="-94" y="0" type="line"/>
      <point x="-18" y="0" type="line"/>
      <point x="-41" y="-105" type="line" smooth="yes"/>
      <point x="-45" y="-126"/>
      <point x="-72" y="-224"/>
      <point x="-193" y="-224" type="curve" smooth="yes"/>
      <point x="-210" y="-224"/>
      <point x="-225" y="-221"/>
      <point x="-239" y="-216" type="curve"/>
      <point x="-215" y="-163" type="line"/>
      <point x="-182" y="-163" type="line" smooth="yes"/>
      <point x="-147" y="-163"/>
      <point x="-125" y="-144"/>
      <point x="-117" y="-106" type="curve" smooth="yes"/>
    </contour>
  </outline>
</glyph>
<glyph name="Euro" format="2">
  <advance width="600"/>
  <unicode hex="20AC"/>
  <outline>
    <contour>
      <point x="425" y="716" type="curve" smooth="yes"/>
      <point x="502" y="716"/>
      <point x="551" y="694"/>
      <point x="600" y="647" type="curve"/>
      <point x="556" y="596" type="line"/>
      <point x="505" y="640"/>
      <point x="467" y="653"/>
      <point x="413" y="653" type="curve" smooth="yes"/>
      <point x="253" y="653"/>
      <point x="133" y="506"/>
      <point x="133" y="277" type="curve" smooth="yes"/>
      <point x="133" y="112"/>
      <point x="204" y="56"/>
      <point x="299" y="56" type="curve" smooth="yes"/>
      <point x="366" y="56"/>
      <point x="429" y="83"/>
      <point x="473" y="109" type="curve"/>
      <point x="493" y="51" type="line"/>
      <point x="450" y="26"/>
      <point x="388" y="-8"/>
      <point x="284" y="-8" type="curve" smooth="yes"/>
      <point x="135" y="-8"/>
      <point x="53" y="94"/>
      <point x="53" y="277" type="curve" smooth="yes"/>
      <point x="53" y="547"/>
      <point x="200" y="716"/>
    </contour>
    <contour>
      <point x="53" y="468" type="line"/>
      <point x="504" y="467" type="line"/>
      <point x="467" y="404" type="line"/>
      <point x="39" y="404" type="line"/>
    </contour>
    <contour>
      <point x="19" y="309" type="line"/>
      <point x="412" y="309" type="line"/>
      <point x="375" y="245" type="line"/>
      <point x="5" y="245" type="line"/>
    </contour>
  </outline>
</glyph>
<glyph name="a.ss01" format="2">
  <advance width="512"/>
  <outline>
    <contour>
      <point x="311" y="528" type="curve" smooth="yes"/>
      <point x="449" y="528"/>
      <point x="500" y="452"/>
      <point x="472" y="321" type="curve" smooth="yes"/>
      <point x="404" y="0" type="line"/>
      <point x="324" y="0" type="line"/>
      <point x="344" y="97" type="line"/>
      <point x="328" y="69"/>
      <point x="262" y="-8"/>
      <point x="153" y="-8" type="curve" smooth="yes"/>
      <point x="54" y="-8"/>
      <point x="-9" y="46"/>
      <point x="11" y="138" type="curve" smooth="yes"/>
      <point x="31" y="234"/>
      <point x="113" y="303"/>
      <point x="246" y="303" type="curve" smooth="yes"/>
      <point x="388" y="303" type="line"/>
      <point x="395" y="335" type="line" smooth="yes"/>
      <point x="412" y="414"/>
      <point x="383" y="466"/>
      <point x="295" y="466" type="curve" smooth="yes"/>
      <point x="230" y="466"/>
      <point x="182" y="452"/>
      <point x="127" y="431" type="curve"/>
      <point x="120" y="487" type="line"/>
      <point x="206" y="522"/>
      <point x="246" y="528"/>
    </contour>
    <contour>
      <point x="375" y="241" type="line"/>
      <point x="230" y="241" type="line" smooth="yes"/>
      <point x="144" y="241"/>
      <point x="105" y="204"/>
      <point x="92" y="142" type="curve" smooth="yes"/>
      <point x="78" y="78"/>
      <point x="122" y="56"/>
      <point x="174" y="56" type="curve" smooth="yes"/>
      <point x="261" y="56"/>
      <point x="332" y="125"/>
      <point x="359" y="168" type="curve"/>
    </contour>
  </outline>
</glyph>
<glyph name="ampersand_ampersand.liga" format="2">
  <advance width="1200"/>
  <outline>
    <contour>
      <point x="496" y="716" type="curve" smooth="yes"/>
      <point x="542" y="716"/>
      <point x="576" y="709"/>
      <point x="626" y="681" type="curve"/>
      <point x="587" y="622" type="line"/>
      <point x="556" y="639"/>
      <point x="530" y="652"/>
      <point x="485" y="652" type="curve" smooth="yes"/>
      <point x="416" y="652"/>
      <point x="384" y="612"/>
      <point x="374" y="565" type="curve" smooth="yes"/>
      <point x="362" y="509"/>
      <point x="384" y="462"/>
      <point x="407" y="421" type="curve" smooth="yes"/>
      <point x="486" y="261" type="line"/>
      <point x="488" y="271" type="line" smooth="yes"/>
      <point x="508" y="364"/>
      <point x="599" y="430"/>
      <point x="685" y="444" type="curve"/>
      <point x="670" y="485"/>
      <point x="663" y="523"/>
      <point x="672" y="566" type="curve" smooth="yes"/>
      <point x="687" y="638"/>
      <point x="749" y="716"/>
      <point x="874" y="716" type="curve" smooth="yes"/>
      <point x="920" y="716"/>
      <point x="954" y="709"/>
      <point x="1004" y="681" type="curve"/>
      <point x="965" y="622" type="line"/>
      <point x="934" y="639"/>
      <point x="908" y="652"/>
      <point x="863" y="652" type="curve" smooth="yes"/>
      <point x="794" y="652"/>
      <point x="762" y="612"/>
      <point x="752" y="565" type="curve" smooth="yes"/>
      <point x="740" y="509"/>
      <point x="759" y="462"/>
      <point x="782" y="421" type="curve" smooth="yes"/>
      <point x="870" y="256" type="line"/>
      <point x="944" y="416" type="line"/>
      <point x="1076" y="405" type="line"/>
      <point x="1062" y="342" type="line"/>
      <point x="980" y="348" type="line"/>
      <point x="976" y="339"/>
      <point x="938" y="253"/>
      <point x="907" y="185" type="curve"/>
      <point x="1006" y="0" type="line"/>
      <point x="916" y="0" type="line"/>
      <point x="861" y="102" type="line"/>
      <point x="812" y="36"/>
      <point x="736" y="-8"/>
      <point x="655" y="-8" type="curve" smooth="yes"/>
      <point x="568" y="-8"/>
      <point x="524" y="28"/>
      <point x="487" y="95" type="curve"/>
      <point x="435" y="29"/>
      <point x="362" y="-8"/>
      <point x="272" y="-8" type="curve" smooth="yes"/>
      <point x="139" y="-8"/>
      <point x="70" y="90"/>
      <point x="98" y="221" type="curve" smooth="yes"/>
      <point x="126" y="351"/>
      <point x="221" y="429"/>
      <point x="307" y="444" type="curve"/>
      <point x="292" y="485"/>
      <point x="285" y="523"/>
      <point x="294" y="566" type="curve" smooth="yes"/>
      <point x="309" y="638"/>
      <point x="371" y="716"/>
    </contour>
    <contour>
      <point x="714" y="385" type="curve"/>
      <point x="706" y="385" type="line" smooth="yes"/>
      <point x="642" y="385"/>
      <point x="566" y="341"/>
      <point x="546" y="246" type="curve" smooth="yes"/>
      <point x="530" y="172" type="line"/>
      <point x="538" y="156" type="line" smooth="yes"/>
      <point x="564" y="109"/>
      <point x="595" y="53"/>
      <point x="668" y="53" type="curve" smooth="yes"/>
      <point x="725" y="53"/>
      <point x="788" y="85"/>
      <point x="829" y="166" type="curve"/>
      <point x="716" y="381"/>
      <point x="715" y="383"/>
    </contour>
    <contour>
      <point x="336" y="385" type="line"/>
      <point x="331" y="385" type="line" smooth="yes"/>
      <point x="260" y="386"/>
      <point x="193" y="330"/>
      <point x="170" y="221" type="curve" smooth="yes"/>
      <point x="148" y="116"/>
      <point x="200" y="53"/>
      <point x="286" y="53" type="curve" smooth="yes"/>
      <point x="352" y="53"/>
      <point x="423" y="89"/>
      <point x="456" y="153" type="curve"/>
    </contour>
  </outline>
</glyph>
<glyph name="r.alt" format="2">
  <advance width="600"/>
  <outline>
    <contour>
      <point x="82" y="520" type="line"/>
      <point x="295" y="520" type="line"/>
      <point x="263" y="366" type="line"/>
      <point x="304" y="462"/>
      <point x="398" y="528"/>
      <point x="505" y="528" type="curve" smooth="yes"/>
      <point x="540" y="528"/>
      <point x="569" y="524"/>
      <point x="603" y="512" type="curve"/>
      <point x="577" y="450" type="line"/>
      <point x="552" y="459"/>
      <point x="520" y="464"/>
      <point x="491" y="464" type="curve" smooth="yes"/>
      <point x="403" y="464"/>
      <point x="304" y="404"/>
      <point x="264" y="294" type="curve"/>
      <point x="202" y="0" type="line"/>
      <point x="122" y="0" type="line"/>
      <point x="219" y="456" type="line"/>
      <point x="75" y="456" type="line"/>
    </contour>
  </outline>
</glyph>
<glyph name="r.ss01" format="2">
  <advance width="600"/>
  <outline>
    <contour>
      <point x="90" y="520" type="line"/>
      <point x="299" y="520" type="line"/>
      <point x="279" y="423" type="line"/>
      <point x="319" y="485"/>
      <point x="378" y="528"/>
      <point x="485" y="528" type="curve" smooth="yes"/>
      <point x="520" y="528"/>
      <point x="543" y="522"/>
      <point x="570" y="511" type="curve"/>
      <point x="540" y="452" type="line"/>
      <point x="517" y="460"/>
      <point x="497" y="464"/>
      <point x="459" y="464" type="curve" smooth="yes"/>
      <point x="371" y="464"/>
      <point x="303" y="404"/>
      <point x="270" y="351" type="curve"/>
      <point x="196" y="0" type="line"/>
      <point x="116" y="0" type="line"/>
      <point x="213" y="456" type="line"/>
      <point x="82" y="456" type="line"/>
    </contour>
  </outline>
</glyph>
